<svg xmlns="http://www.w3.org/2000/svg" xmlns:xlink="http://www.w3.org/1999/xlink" width="108" height="108" viewBox="0 0 108 108">
  <defs>
    <filter id="Path_978624" x="0" y="0" width="108" height="108" filterUnits="userSpaceOnUse">
      <feOffset dy="3" input="SourceAlpha"/>
      <feGaussianBlur stdDeviation="3" result="blur"/>
      <feFlood flood-opacity="0.161"/>
      <feComposite operator="in" in2="blur"/>
      <feComposite in="SourceGraphic"/>
    </filter>
  </defs>
  <g id="Group_1144578" data-name="Group 1144578" transform="translate(-617 -3286)">
    <g id="Group_1144134" data-name="Group 1144134" transform="translate(0 -16)">
      <g transform="matrix(1, 0, 0, 1, 617, 3302)" filter="url(#Path_978624)">
        <g id="Path_978624-2" data-name="Path 978624" transform="translate(9 6)" fill="#fff">
          <path d="M 45 88.5 C 39.12687683105469 88.5 33.43022537231445 87.35007476806641 28.06830024719238 85.08217620849609 C 22.88852500915527 82.89131164550781 18.23629951477051 79.75458526611328 14.2408504486084 75.75914764404297 C 10.24541282653809 71.76370239257812 7.108687400817871 67.11147308349609 4.917825222015381 61.93170166015625 C 2.649924993515015 56.56977462768555 1.5 50.87312316894531 1.5 45 C 1.5 39.12687683105469 2.649924993515015 33.43022537231445 4.917825222015381 28.06830024719238 C 7.108687400817871 22.88852500915527 10.24541282653809 18.23629951477051 14.2408504486084 14.2408504486084 C 18.23629951477051 10.24541282653809 22.88852500915527 7.108687400817871 28.06830024719238 4.917825222015381 C 33.43022537231445 2.649924993515015 39.12687683105469 1.5 45 1.5 C 50.87312316894531 1.5 56.56977462768555 2.649924993515015 61.93170166015625 4.917825222015381 C 67.11147308349609 7.108687400817871 71.76370239257812 10.24541282653809 75.75914764404297 14.2408504486084 C 79.75458526611328 18.23629951477051 82.89131164550781 22.88852500915527 85.08217620849609 28.06830024719238 C 87.35007476806641 33.43022537231445 88.5 39.12687683105469 88.5 45 C 88.5 50.87312316894531 87.35007476806641 56.56977462768555 85.08217620849609 61.93170166015625 C 82.89131164550781 67.11147308349609 79.75458526611328 71.76370239257812 75.75914764404297 75.75914764404297 C 71.76370239257812 79.75458526611328 67.11147308349609 82.89131164550781 61.93170166015625 85.08217620849609 C 56.56977462768555 87.35007476806641 50.87312316894531 88.5 45 88.5 Z" stroke="none"/>
          <path d="M 45 3 C 39.32871246337891 3 33.82865524291992 4.110054016113281 28.65262985229492 6.299339294433594 C 23.65165710449219 8.414573669433594 19.15968322753906 11.44334411621094 15.301513671875 15.301513671875 C 11.44334411621094 19.15968322753906 8.414573669433594 23.65165710449219 6.299339294433594 28.65262985229492 C 4.110054016113281 33.82865524291992 3 39.32871246337891 3 45 C 3 50.67128753662109 4.110054016113281 56.17134475708008 6.299339294433594 61.34737396240234 C 8.414573669433594 66.34834289550781 11.44334411621094 70.84031677246094 15.301513671875 74.698486328125 C 19.15968322753906 78.55665588378906 23.65165710449219 81.58542633056641 28.65262985229492 83.70066070556641 C 33.82865524291992 85.88994598388672 39.32871246337891 87 45 87 C 50.67128753662109 87 56.17134475708008 85.88994598388672 61.34737396240234 83.70066070556641 C 66.34834289550781 81.58542633056641 70.84031677246094 78.55665588378906 74.698486328125 74.698486328125 C 78.55665588378906 70.84031677246094 81.58542633056641 66.34834289550781 83.70066070556641 61.34737396240234 C 85.88994598388672 56.17134475708008 87 50.67128753662109 87 45 C 87 39.32871246337891 85.88994598388672 33.82865524291992 83.70066070556641 28.65262985229492 C 81.58542633056641 23.65165710449219 78.55665588378906 19.15968322753906 74.698486328125 15.301513671875 C 70.84031677246094 11.44334411621094 66.34834289550781 8.414573669433594 61.34737396240234 6.299339294433594 C 56.17134475708008 4.110054016113281 50.67128753662109 3 45 3 M 45 0 C 69.85281372070312 0 90 20.14718627929688 90 45 C 90 69.85281372070312 69.85281372070312 90 45 90 C 20.14718627929688 90 0 69.85281372070312 0 45 C 0 20.14718627929688 20.14718627929688 0 45 0 Z" stroke="none" fill="#fa6631"/>
        </g>
      </g>
      <g id="profesor_13_" data-name="profesor (13)" transform="translate(638.244 3321.287)">
        <path id="Path_978678" data-name="Path 978678" d="M45.18,11.59v4.592a2.855,2.855,0,0,0-1.925-.741c-12.516,0-12.516-4.814-12.516-4.814,0,4.814-4.814,4.814-4.814,4.814A2.855,2.855,0,0,0,24,16.183V11.59a10.59,10.59,0,0,1,21.18,0Z" transform="translate(-0.782 -0.037)" fill="#555a66"/>
        <path id="Path_978679" data-name="Path 978679" d="M34.59,1A10.584,10.584,0,0,0,24,11.59v3.851a10.59,10.59,0,0,1,21.18,0V11.59A10.584,10.584,0,0,0,34.59,1Z" transform="translate(-0.782 -0.037)" fill="#414952"/>
        <path id="Path_978680" data-name="Path 978680" d="M36.888,58.888h.963v3.851H35.925A1.931,1.931,0,0,1,34,60.814V56a2.888,2.888,0,0,0,2.888,2.888Z" transform="translate(-1.155 -2.086)" fill="#cfa388"/>
        <path id="Path_978681" data-name="Path 978681" d="M36.888,58.888A2.888,2.888,0,0,1,34,56v1.925a2.888,2.888,0,0,0,2.888,2.888h.963V58.888Z" transform="translate(-1.155 -2.086)" fill="#b2876d"/>
        <path id="Path_978682" data-name="Path 978682" d="M37.851,47v5.776h-.963A2.888,2.888,0,0,0,34,55.665V48.925A1.931,1.931,0,0,1,35.925,47Z" transform="translate(-1.155 -1.751)" fill="#cfa388"/>
        <path id="Path_978683" data-name="Path 978683" d="M47.627,59v3.851H38V59h9.627Z" transform="translate(-1.304 -2.198)" fill="#966857"/>
        <path id="Path_978684" data-name="Path 978684" d="M47.627,59v1.925H38V59h9.627Z" transform="translate(-1.304 -2.198)" fill="#8d5c4d"/>
        <path id="Path_978685" data-name="Path 978685" d="M47.627,47v5.776H38V47Z" transform="translate(-1.304 -1.751)" fill="#966857"/>
        <path id="Path_978686" data-name="Path 978686" d="M34.739,35.888l-2.888,2.888L28,34.925v-.963L31.851,33Z" transform="translate(-0.931 -1.229)" fill="#bec3d2"/>
        <path id="Path_978687" data-name="Path 978687" d="M41.739,34.03v.9l-3.851,3.851L35,35.888,37.888,33Z" transform="translate(-1.192 -1.229)" fill="#bec3d2"/>
        <path id="Path_978688" data-name="Path 978688" d="M37.776,38.888l-1.925,1.925H33.925L32,38.888,34.888,36Z" transform="translate(-1.08 -1.341)" fill="#4ab8f7"/>
        <path id="Path_978689" data-name="Path 978689" d="M35.814,41l1.329,5.776H35.814A1.931,1.931,0,0,0,33.888,48.7v6.739L31,53.516,33.888,41Z" transform="translate(-1.043 -1.527)" fill="#19cffc"/>
        <path id="Path_978690" data-name="Path 978690" d="M11.7,51a36.068,36.068,0,0,1-.963,7.7S4,58.7,4,51a3.851,3.851,0,0,0,7.7,0Z" transform="translate(-0.037 -1.9)" fill="#bec3d2"/>
        <path id="Path_978691" data-name="Path 978691" d="M53,51h6.171c.058.375.116.761.164,1.155a5.741,5.741,0,0,1-1.579,4.775C57.255,52.925,53,52.925,53,52.925Z" transform="translate(-1.863 -1.9)" fill="#bec3d2"/>
        <path id="Path_978692" data-name="Path 978692" d="M48,59h4.814v3.851H48Z" transform="translate(-1.676 -2.198)" fill="#f2f6fc"/>
        <path id="Path_978693" data-name="Path 978693" d="M35.069,61.92h-15.4V47.478L11,58.069a36.068,36.068,0,0,0,.963-7.7l1.925-11.553,1.925-1.925L27.367,34v.963l3.851,3.851,1.925,1.925L30.255,53.255l2.888,1.925v4.814A1.931,1.931,0,0,0,35.069,61.92Z" transform="translate(-0.298 -1.267)" fill="#dce1eb"/>
        <path id="Path_978694" data-name="Path 978694" d="M52.367,50.369v1.925H47.553V46.518H37.329L36,40.742l1.925-1.925,3.851-3.851v-.9l10.59,2.821s4.554,3.254,6.171,13.478Z" transform="translate(-1.229 -1.269)" fill="#dce1eb"/>
        <path id="Path_978695" data-name="Path 978695" d="M14.888,26v6.739H12V26Z" transform="translate(-0.335 -0.969)" fill="#faa68e"/>
        <path id="Path_978696" data-name="Path 978696" d="M6,30h5.776v2.888H6Z" transform="translate(-0.112 -1.118)" fill="#ffcdbe"/>
        <path id="Path_978697" data-name="Path 978697" d="M13.7,35.888a2.829,2.829,0,0,0-2.888,2.888H7.925L6,36.851V33h4.814A2.829,2.829,0,0,0,13.7,35.888Z" transform="translate(-0.112 -1.229)" fill="#faa68e"/>
        <path id="Path_978698" data-name="Path 978698" d="M15.814,33v3.851l-1.925,1.925H11a2.829,2.829,0,0,1,2.888-2.888A2.829,2.829,0,0,1,11,33Z" transform="translate(-0.298 -1.229)" fill="#ffbeaa"/>
        <path id="Path_978699" data-name="Path 978699" d="M13.627,39,11.7,50.553a3.851,3.851,0,0,1-7.7,0L7.851,39Z" transform="translate(-0.037 -1.453)" fill="#ffcdbe"/>
        <path id="Path_978700" data-name="Path 978700" d="M9.776,53.441A3.851,3.851,0,0,1,5.925,49.59L9.456,39h-1.6L4,50.553a3.839,3.839,0,0,0,6.458,2.82,3.885,3.885,0,0,1-.682.068Z" transform="translate(-0.037 -1.453)" fill="#ffbeaa"/>
        <path id="Path_978701" data-name="Path 978701" d="M52.292,53s4.255,0,4.756,4.005A5.708,5.708,0,0,1,52.9,58.776H36.888a2.888,2.888,0,1,1,0-5.776Z" transform="translate(-1.155 -1.974)" fill="#ffcdbe"/>
        <path id="Path_978702" data-name="Path 978702" d="M52.9,56.925H36.889A2.853,2.853,0,0,1,34.177,55a2.88,2.88,0,0,0,2.711,3.851H52.9a5.708,5.708,0,0,0,4.149-1.771,4.7,4.7,0,0,0-.445-1.51,5.7,5.7,0,0,1-3.7,1.356Z" transform="translate(-1.155 -2.049)" fill="#ffbeaa"/>
        <g id="Group_1144133" data-name="Group 1144133" transform="translate(22.255 15.404)">
          <path id="Path_978703" data-name="Path 978703" d="M37.776,30.48v2.426l-2.888,2.888L32,32.906V30.48a8.582,8.582,0,0,0,5.776,0Z" transform="translate(-23.335 -16.539)" fill="#faa68e"/>
          <path id="Path_978704" data-name="Path 978704" d="M23.963,16.741A2.855,2.855,0,0,1,25.888,16v5.776A2.888,2.888,0,0,1,23,18.888,2.83,2.83,0,0,1,23.963,16.741Z" transform="translate(-23 -16)" fill="#faa68e"/>
          <path id="Path_978705" data-name="Path 978705" d="M44,16a2.888,2.888,0,1,1,0,5.776Z" transform="translate(-23.782 -16)" fill="#faa68e"/>
        </g>
        <path id="Path_978706" data-name="Path 978706" d="M43.329,15.814V21.59A8.665,8.665,0,0,1,26,21.59V15.814s4.814,0,4.814-4.814C30.814,11,30.814,15.814,43.329,15.814Z" transform="translate(-0.857 -0.41)" fill="#ffcdbe"/>
        <path id="Path_978707" data-name="Path 978707" d="M30.814,11c0,4.814-4.814,4.814-4.814,4.814v1.925s4.814,0,4.814-4.814c0,0,0,4.814,12.516,4.814V15.814C30.814,15.814,30.814,11,30.814,11Z" transform="translate(-0.857 -0.41)" fill="#ffbeaa"/>
        <path id="Path_978708" data-name="Path 978708" d="M34.627,31.18A9.638,9.638,0,0,1,25,21.553V15.776a.963.963,0,0,1,.963-.963,3.707,3.707,0,0,0,3.851-3.851.963.963,0,0,1,1.926,0c0,.008.4,3.851,11.553,3.851a.963.963,0,0,1,.963.963v5.776A9.638,9.638,0,0,1,34.627,31.18Zm-7.7-14.523v4.9a7.7,7.7,0,1,0,15.4,0V16.73c-6.531-.133-9.656-1.621-11.152-3.06A5.6,5.6,0,0,1,26.925,16.657Z" transform="translate(-0.82 -0.373)"/>
        <path id="Path_978709" data-name="Path 978709" d="M44,22.7V20.776a1.925,1.925,0,1,0,0-3.851V15a3.851,3.851,0,0,1,0,7.7Z" transform="translate(-1.527 -0.559)"/>
        <path id="Path_978710" data-name="Path 978710" d="M25.851,22.7a3.851,3.851,0,0,1,0-7.7v1.925a1.925,1.925,0,0,0,0,3.851Z" transform="translate(-0.708 -0.559)"/>
        <path id="Path_978711" data-name="Path 978711" d="M46.106,16.367H44.18V11.553a9.627,9.627,0,0,0-19.255,0v4.814H23V11.553a11.553,11.553,0,0,1,23.106,0Z" transform="translate(-0.745)"/>
        <path id="Path_978712" data-name="Path 978712" d="M34.851,26.851A3.851,3.851,0,0,1,31,23h1.925a1.925,1.925,0,1,0,3.851,0H38.7A3.851,3.851,0,0,1,34.851,26.851Z" transform="translate(-1.043 -0.857)"/>
        <path id="Path_978713" data-name="Path 978713" d="M31,18h1.925v1.925H31Z" transform="translate(-1.043 -0.671)"/>
        <path id="Path_978714" data-name="Path 978714" d="M37,18h1.925v1.925H37Z" transform="translate(-1.267 -0.671)"/>
        <path id="Path_978715" data-name="Path 978715" d="M34.851,36.739a.963.963,0,0,1-.681-.282l-2.888-2.888A.963.963,0,0,1,31,32.888V30h1.925v2.49l1.925,1.925,1.925-1.925V30H38.7v2.888a.963.963,0,0,1-.282.681l-2.888,2.888A.963.963,0,0,1,34.851,36.739Z" transform="translate(-1.043 -1.118)"/>
        <path id="Path_978716" data-name="Path 978716" d="M52.864,58.958H36.851a3.851,3.851,0,1,1,0-7.7H51.292V45.48h1.925v6.739a.963.963,0,0,1-.963.963h-15.4a1.925,1.925,0,0,0,0,3.851H52.864A4.8,4.8,0,0,0,56.474,55.4a4.85,4.85,0,0,0,1.164-3.827c-1.243-9.54-5.094-13.25-5.828-13.876l-14.249-3.8.5-1.86L52.5,35.885a.963.963,0,0,1,.311.146c.214.153,5.244,3.865,6.733,15.289a6.753,6.753,0,0,1-6.679,7.637Z" transform="translate(-1.118 -1.193)"/>
        <path id="Path_978717" data-name="Path 978717" d="M47.441,63.329H35.888A2.888,2.888,0,0,1,33,60.441V48.888A2.888,2.888,0,0,1,35.888,46H47.441a.963.963,0,0,1,.963.963v5.776H46.478V47.925H35.888a.963.963,0,0,0-.963.963V60.441a.963.963,0,0,0,.963.963h10.59V58.516H48.4v3.851A.963.963,0,0,1,47.441,63.329Z" transform="translate(-1.118 -1.714)"/>
        <path id="Path_978718" data-name="Path 978718" d="M37,47h1.925v5.776H37Z" transform="translate(-1.267 -1.751)"/>
        <path id="Path_978719" data-name="Path 978719" d="M37,59h1.925v3.851H37Z" transform="translate(-1.267 -2.198)"/>
        <path id="Path_978720" data-name="Path 978720" d="M52.814,63.814H48V61.888h3.851V59h1.925v3.851A.963.963,0,0,1,52.814,63.814Z" transform="translate(-1.676 -2.198)"/>
        <path id="Path_978721" data-name="Path 978721" d="M7.814,55.329A4.82,4.82,0,0,1,3,50.516a.963.963,0,0,1,.049-.3L6.9,38.659A.963.963,0,0,1,7.814,38H13.59a.963.963,0,0,1,.949,1.122L12.627,50.6a4.819,4.819,0,0,1-4.814,4.73ZM4.925,50.661a2.889,2.889,0,1,0,5.776-.145.885.885,0,0,1,.013-.159l1.738-10.431H8.506Z" transform="translate(0 -1.416)"/>
        <path id="Path_978722" data-name="Path 978722" d="M14.532,39.42,13.17,38.059l1.643-1.643v-.564a.963.963,0,0,1-.963.963,1.812,1.812,0,0,0-1.925,1.925H10a3.65,3.65,0,0,1,1.223-2.883A4.069,4.069,0,0,1,10,32.963.963.963,0,0,1,10.963,32h4.814a.963.963,0,0,1,.963.963v3.851a.963.963,0,0,1-.282.681Zm-2.391-5.494a1.72,1.72,0,0,0,1.71.963.963.963,0,0,1,.963.963V33.925Z" transform="translate(-0.261 -1.192)"/>
        <path id="Path_978723" data-name="Path 978723" d="M15.814,32.7H13.888V26.925h-.963V32.7H11V25.963A.963.963,0,0,1,11.963,25h2.888a.963.963,0,0,1,.963.963Z" transform="translate(-0.298 -0.931)"/>
        <path id="Path_978724" data-name="Path 978724" d="M10.776,33.814H5.963A.963.963,0,0,1,5,32.851V29.963A.963.963,0,0,1,5.963,29h5.776v1.925H6.925v.963h3.851Z" transform="translate(-0.075 -1.08)"/>
        <path id="Path_978725" data-name="Path 978725" d="M7.208,39.457,5.282,37.532A.963.963,0,0,1,5,36.851V33H6.925v3.452L8.569,38.1Z" transform="translate(-0.075 -1.229)"/>
        <path id="Path_978726" data-name="Path 978726" d="M56.8,57.087c-.38-3.043-3.456-3.162-3.8-3.162V52a5.6,5.6,0,0,1,5.711,4.848Z" transform="translate(-1.863 -1.937)"/>
        <path id="Path_978727" data-name="Path 978727" d="M53,50h6.739v1.925H53Z" transform="translate(-1.863 -1.863)"/>
        <path id="Path_978728" data-name="Path 978728" d="M0,0H15.878V1.925H0Z" transform="translate(15.293 34.68) rotate(-14.064)"/>
        <path id="Path_978729" data-name="Path 978729" d="M34.771,63.367h-15.4A.963.963,0,0,1,18.4,62.4V50.658l-6.957,8.5a.963.963,0,0,1-.745.354c-.077,0-7.7-.1-7.7-8.665H4.925c0,5.614,3.993,6.552,5.346,6.708l8.35-10.205a.963.963,0,0,1,1.708.608V61.441H34.771Z" transform="translate(0 -1.751)"/>
        <path id="Path_978730" data-name="Path 978730" d="M11.9,58.936l-1.868-.468A35.415,35.415,0,0,0,10.964,51h1.925a36.735,36.735,0,0,1-.992,7.936Z" transform="translate(-0.262 -1.9)"/>
        <path id="Path_978731" data-name="Path 978731" d="M37.59,39.776a.963.963,0,0,1-.681-.282L34.7,37.287l-2.208,2.208a.963.963,0,0,1-1.361,0l-3.851-3.851A.963.963,0,0,1,27,34.963V34h1.925v.564l2.888,2.888,2.208-2.208a.963.963,0,0,1,1.361,0l2.208,2.208,2.888-2.888V34H42.4v.963a.963.963,0,0,1-.282.681l-3.851,3.851A.963.963,0,0,1,37.59,39.776Z" transform="translate(-0.894 -1.267)"/>
        <path id="Path_978732" data-name="Path 978732" d="M35.825,41.862H33.9a.963.963,0,0,1-.681-.282l-1.926-1.926,1.361-1.361L34.3,39.936h1.128l1.643-1.643,1.361,1.361L36.505,41.58a.963.963,0,0,1-.681.282Z" transform="translate(-1.054 -1.426)"/>
        <path id="Path_978733" data-name="Path 978733" d="M33.317,56.234l-2.888-1.925a.963.963,0,0,1-.4-1.018l2.888-12.516,1.877.433L32.051,53.075l2.335,1.557Z" transform="translate(-1.006 -1.519)"/>
        <path id="Path_978734" data-name="Path 978734" d="M0,0H1.925V5.928H0Z" transform="translate(33.843 39.711) rotate(-12.939)"/>
        <path id="Path_978735" data-name="Path 978735" d="M13,17h1.925v5.776H13Z" transform="translate(-0.373 -0.633)"/>
        <path id="Path_978736" data-name="Path 978736" d="M0,0H5.446V1.925H0Z" transform="translate(14.832 21.462) rotate(-45)"/>
        <path id="Path_978737" data-name="Path 978737" d="M0,0H1.925V5.446H0Z" transform="translate(7.131 18.973) rotate(-45)"/>
      </g>
    </g>
  </g>
</svg>
