<svg id="Group_1144190" data-name="Group 1144190" xmlns="http://www.w3.org/2000/svg" width="33.798" height="33.799" viewBox="0 0 33.798 33.799">
  <path id="Path_978774" data-name="Path 978774" d="M410.2,121.22a2.1,2.1,0,1,0,2.1,2.1A2.1,2.1,0,0,0,410.2,121.22Zm0,3.2a1.105,1.105,0,1,1,1.105-1.105A1.107,1.107,0,0,1,410.2,124.421Z" transform="translate(-381.166 -113.218)"/>
  <path id="Path_978775" data-name="Path 978775" d="M42.5,121.22a2.1,2.1,0,1,0,2.1,2.1A2.1,2.1,0,0,0,42.5,121.22Zm0,3.2a1.105,1.105,0,1,1,1.105-1.105A1.107,1.107,0,0,1,42.5,124.421Z" transform="translate(-37.739 -113.218)"/>
  <path id="Path_978776" data-name="Path 978776" d="M29.036,5.334H26.063V4.191H26.9a1.163,1.163,0,0,0,1.162-1.162V1.162A1.163,1.163,0,0,0,26.9,0H6.9A1.163,1.163,0,0,0,5.735,1.162V3.029A1.163,1.163,0,0,0,6.9,4.191h.839V5.334H4.763a4.763,4.763,0,1,0,0,9.526H7.068v1.161a1.564,1.564,0,0,0-1.334,1.545V22.48a.5.5,0,0,0,.99,0V17.566a.573.573,0,0,1,.572-.572H26.5a.573.573,0,0,1,.572.572V33.3a.5.5,0,0,0,.99,0V17.566a1.564,1.564,0,0,0-1.334-1.545V14.86h2.306a4.763,4.763,0,0,0,0-9.526ZM6.725,3.029V1.162A.172.172,0,0,1,6.9.99H26.9a.172.172,0,0,1,.172.172V3.029A.172.172,0,0,1,26.9,3.2H6.9a.172.172,0,0,1-.172-.172Zm17.2,10.841a.5.5,0,0,0,0,.99H25.74V16H8.059V14.86H21.612a.5.5,0,1,0,0-.99H7.666A4.762,4.762,0,0,0,9.5,10.592H24.3a4.762,4.762,0,0,0,1.834,3.278Zm5.113,0A3.777,3.777,0,0,1,25.263,10.1h0a3.766,3.766,0,0,1,.5-1.885.5.5,0,1,0-.857-.5A4.752,4.752,0,0,0,24.3,9.6H9.5a4.752,4.752,0,0,0-.612-1.887.5.5,0,1,0-.857.5,3.766,3.766,0,0,1,.5,1.885h0A3.773,3.773,0,1,1,4.763,6.325h5.713a.5.5,0,0,0,0-.99H8.725V4.191H25.073V5.334H12.787a.5.5,0,1,0,0,.99H29.036a3.773,3.773,0,0,1,0,7.545Z" transform="translate(0 0)"/>
  <path id="Path_978777" data-name="Path 978777" d="M87.365,368.04a.5.5,0,0,0-.5.5v8.513a.5.5,0,0,0,.99,0v-8.513A.5.5,0,0,0,87.365,368.04Z" transform="translate(-81.135 -343.745)"/>
  <path id="Path_978778" data-name="Path 978778" d="M136.923,282.846a1.564,1.564,0,0,0-1.562,1.562v13.07a.5.5,0,0,0,.99,0v-13.07a.572.572,0,1,1,1.144,0v13.07a.5.5,0,0,0,.99,0v-13.07A1.564,1.564,0,0,0,136.923,282.846Z" transform="translate(-126.425 -264.175)"/>
  <path id="Path_978779" data-name="Path 978779" d="M201.574,282.846a1.564,1.564,0,0,0-1.562,1.562v13.07a.5.5,0,0,0,.99,0v-13.07a.572.572,0,1,1,1.144,0v13.07a.5.5,0,0,0,.99,0v-13.07A1.564,1.564,0,0,0,201.574,282.846Z" transform="translate(-186.809 -264.175)"/>
  <path id="Path_978780" data-name="Path 978780" d="M266.224,282.846a1.564,1.564,0,0,0-1.562,1.562v13.07a.5.5,0,0,0,.99,0v-13.07a.572.572,0,0,1,1.144,0v13.07a.5.5,0,1,0,.99,0v-13.07A1.564,1.564,0,0,0,266.224,282.846Z" transform="translate(-247.191 -264.175)"/>
  <path id="Path_978781" data-name="Path 978781" d="M330.875,282.846a1.564,1.564,0,0,0-1.562,1.562v13.07a.5.5,0,1,0,.99,0v-13.07a.572.572,0,1,1,1.144,0v13.07a.5.5,0,1,0,.99,0v-13.07A1.564,1.564,0,0,0,330.875,282.846Z" transform="translate(-307.574 -264.175)"/>
</svg>
