<svg xmlns="http://www.w3.org/2000/svg" xmlns:xlink="http://www.w3.org/1999/xlink" width="108" height="108" viewBox="0 0 108 108">
  <defs>
    <filter id="Path_978624" x="0" y="0" width="108" height="108" filterUnits="userSpaceOnUse">
      <feOffset dy="3" input="SourceAlpha"/>
      <feGaussianBlur stdDeviation="3" result="blur"/>
      <feFlood flood-opacity="0.161"/>
      <feComposite operator="in" in2="blur"/>
      <feComposite in="SourceGraphic"/>
    </filter>
  </defs>
  <g id="Group_1144577" data-name="Group 1144577" transform="translate(2660 -1165)">
    <g id="Group_1144494" data-name="Group 1144494" transform="translate(-2857 -53)">
      <g id="Group_1144121" data-name="Group 1144121" transform="translate(10 -635)">
        <g transform="matrix(1, 0, 0, 1, 187, 1853)" filter="url(#Path_978624)">
          <g id="Path_978624-2" data-name="Path 978624" transform="translate(9 6)" fill="#fff">
            <path d="M 45 88.5 C 39.12687683105469 88.5 33.43022537231445 87.35007476806641 28.06830024719238 85.08217620849609 C 22.88852500915527 82.89131164550781 18.23629951477051 79.75458526611328 14.2408504486084 75.75914764404297 C 10.24541282653809 71.76370239257812 7.108687400817871 67.11147308349609 4.917825222015381 61.93170166015625 C 2.649924993515015 56.56977462768555 1.5 50.87312316894531 1.5 45 C 1.5 39.12687683105469 2.649924993515015 33.43022537231445 4.917825222015381 28.06830024719238 C 7.108687400817871 22.88852500915527 10.24541282653809 18.23629951477051 14.2408504486084 14.2408504486084 C 18.23629951477051 10.24541282653809 22.88852500915527 7.108687400817871 28.06830024719238 4.917825222015381 C 33.43022537231445 2.649924993515015 39.12687683105469 1.5 45 1.5 C 50.87312316894531 1.5 56.56977462768555 2.649924993515015 61.93170166015625 4.917825222015381 C 67.11147308349609 7.108687400817871 71.76370239257812 10.24541282653809 75.75914764404297 14.2408504486084 C 79.75458526611328 18.23629951477051 82.89131164550781 22.88852500915527 85.08217620849609 28.06830024719238 C 87.35007476806641 33.43022537231445 88.5 39.12687683105469 88.5 45 C 88.5 50.87312316894531 87.35007476806641 56.56977462768555 85.08217620849609 61.93170166015625 C 82.89131164550781 67.11147308349609 79.75458526611328 71.76370239257812 75.75914764404297 75.75914764404297 C 71.76370239257812 79.75458526611328 67.11147308349609 82.89131164550781 61.93170166015625 85.08217620849609 C 56.56977462768555 87.35007476806641 50.87312316894531 88.5 45 88.5 Z" stroke="none"/>
            <path d="M 45 3 C 39.32871246337891 3 33.82865524291992 4.110054016113281 28.65262985229492 6.299339294433594 C 23.65165710449219 8.414573669433594 19.15968322753906 11.44334411621094 15.301513671875 15.301513671875 C 11.44334411621094 19.15968322753906 8.414573669433594 23.65165710449219 6.299339294433594 28.65262985229492 C 4.110054016113281 33.82865524291992 3 39.32871246337891 3 45 C 3 50.67128753662109 4.110054016113281 56.17134475708008 6.299339294433594 61.34737396240234 C 8.414573669433594 66.34834289550781 11.44334411621094 70.84031677246094 15.301513671875 74.698486328125 C 19.15968322753906 78.55665588378906 23.65165710449219 81.58542633056641 28.65262985229492 83.70066070556641 C 33.82865524291992 85.88994598388672 39.32871246337891 87 45 87 C 50.67128753662109 87 56.17134475708008 85.88994598388672 61.34737396240234 83.70066070556641 C 66.34834289550781 81.58542633056641 70.84031677246094 78.55665588378906 74.698486328125 74.698486328125 C 78.55665588378906 70.84031677246094 81.58542633056641 66.34834289550781 83.70066070556641 61.34737396240234 C 85.88994598388672 56.17134475708008 87 50.67128753662109 87 45 C 87 39.32871246337891 85.88994598388672 33.82865524291992 83.70066070556641 28.65262985229492 C 81.58542633056641 23.65165710449219 78.55665588378906 19.15968322753906 74.698486328125 15.301513671875 C 70.84031677246094 11.44334411621094 66.34834289550781 8.414573669433594 61.34737396240234 6.299339294433594 C 56.17134475708008 4.110054016113281 50.67128753662109 3 45 3 M 45 0 C 69.85281372070312 0 90 20.14718627929688 90 45 C 90 69.85281372070312 69.85281372070312 90 45 90 C 20.14718627929688 90 0 69.85281372070312 0 45 C 0 20.14718627929688 20.14718627929688 0 45 0 Z" stroke="none" fill="#fd3"/>
          </g>
        </g>
      </g>
      <g id="global-learning_12571363" transform="translate(213.036 1211.898)">
        <g id="Group_1144211" data-name="Group 1144211" transform="translate(10.861 15.696)">
          <path id="Path_978782" data-name="Path 978782" d="M86.818,136.122a23.781,23.781,0,1,0,27.147,19.6,23.765,23.765,0,0,0-27.147-19.6Z" transform="translate(-67.036 -116.837)" fill="#57a3ff" fill-rule="evenodd"/>
          <path id="Path_978783" data-name="Path 978783" d="M73.036,178.19a23.968,23.968,0,0,1,4.359-7.236,3.409,3.409,0,0,1-1.539-2.717v-.085a23.807,23.807,0,0,0,17,42.226,23.237,23.237,0,0,1-6.791-1.7A23.869,23.869,0,0,1,73.036,178.19Z" transform="translate(-67.029 -143.944)" fill="#4e93e6" fill-rule="evenodd"/>
          <path id="Path_978784" data-name="Path 978784" d="M100.572,182.164a13.752,13.752,0,0,1-4.3-1.192c-4.468-2.318-8.3-1.769-11.016,2.762A23.518,23.518,0,0,0,100.572,182.164ZM83.287,147.231c-1.386,5.023-4.132,2.351-8.164,3.99-1.951.8-4.9,2.074-6.989,2.168a23.67,23.67,0,0,1,18.68-16.283c.3-.049.594-.089.893-.13.347,4.34-3.535,7.049-4.419,10.255ZM67.035,160.109a24.24,24.24,0,0,0,.315,4.332,23.727,23.727,0,0,0,12.83,17.45,5.874,5.874,0,0,0,.275-2.2c-.154-2.042-1.951-3.124-1.147-5.377,1.628-4.564-.691-3.295-.937-6.809a2.843,2.843,0,0,1,2.266-2.836c4.052-.492,5.45-8.261-2.189-7.72a41.014,41.014,0,0,0-11.412,3.16ZM95.482,147.3c.945.342,6.265,1.346,6.37,1.55,1.366.073-.7,2.449-1.62,2.771-3.963,1.383-1.349,6.053-4.7,7.35-2.241.87-5.78-3.141-4.354,1.9.877,3.1,4.666,3.295,5.947,6.7.9,2.4,5.231,10.45,7.655,6.825,1.087-1.627-.925-6.984.8-10.169,3.729-6.895-.246-6.765,2.169-13.358.517-1.4,1.774-2.412,2.622-3.4A23.713,23.713,0,0,0,96.2,137.448c-1.628,3.551-4.512,8.485-.715,9.848Z" transform="translate(-67.031 -117.822)" fill="#6eed5a" fill-rule="evenodd"/>
          <path id="Path_978785" data-name="Path 978785" d="M86.1,208.7a11.76,11.76,0,0,0-.8,1.183l.162.037c.113.029.227.053.339.077.069.012.137.029.206.041.109.024.218.045.324.065.077.016.158.028.234.045l.291.049c.089.016.182.029.271.041s.174.029.263.041.2.029.307.041c.077.012.153.02.234.029.109.016.222.028.331.037l.211.024c.121.008.243.02.363.029.061.008.117.012.178.016l.4.024c.049,0,.1,0,.146.008.146,0,.287.012.432.016H90.1c.154,0,.311.008.465.008h.093c.162,0,.323,0,.489,0h.069c.17,0,.339-.012.5-.02h.057c.174-.008.347-.02.521-.032h.041c.182-.016.359-.028.537-.045l.016,0a23.236,23.236,0,0,1-6.791-1.7ZM73.077,178.213a23.968,23.968,0,0,1,4.359-7.236,3.409,3.409,0,0,1-1.539-2.717v-.081c-.044.037-.093.073-.137.11-.028.024-.061.053-.093.077l-.218.183-.081.069c-.077.065-.153.134-.227.2-.024.02-.049.041-.073.065-.081.069-.158.142-.238.211-.016.016-.036.032-.052.049-.085.077-.17.159-.251.236l-.04.037c-.093.085-.182.175-.275.264l-.008.008a23.865,23.865,0,0,0-2.129,2.4l-.008.012c-.077.1-.158.2-.234.305l-.008.012c-.077.1-.15.2-.222.305l-.024.032c-.069.1-.141.2-.211.293l-.024.032c-.065.1-.133.194-.2.3l-.028.037c-.065.1-.13.194-.19.293l-.032.045c-.061.1-.125.2-.186.3l-.024.036c-.061.1-.125.2-.186.3l-.024.045c-.061.1-.121.2-.178.3l-.024.045c-.061.1-.117.207-.178.309l-.02.037c-.057.106-.113.211-.174.317l-.016.032c-.057.106-.113.216-.17.326l-.016.024-.166.342-.008.016a23.575,23.575,0,0,0-1.349,3.364,17.143,17.143,0,0,0,4.9-1.322Zm-5.954,10.03c0,.065.008.134.012.2,0,.053.008.11.012.162l.024.282.012.106c.008.11.02.216.032.326l.008.069c.012.118.028.24.041.362l0,.024c.02.13.036.26.057.391v.016c.02.134.041.269.065.4v0c.028.171.057.338.089.508l.024.122c.028.167.065.329.1.5a.42.42,0,0,1,.016.077c.032.151.069.3.105.447a.838.838,0,0,0,.02.1c.041.162.081.325.121.484.012.037.02.073.032.11.036.146.081.3.121.443,0,.02.012.041.016.061l.146.476.036.118c.053.155.1.313.158.468a.236.236,0,0,0,.02.057c.049.142.1.285.149.423.012.041.028.077.041.113.057.151.113.3.174.452.012.032.028.069.04.106l.158.378c.016.032.028.069.045.1.06.142.125.289.186.431.02.041.041.086.061.126.057.126.117.252.178.378a.83.83,0,0,0,.04.085c.065.134.13.268.2.4.024.045.044.094.069.138.069.134.137.264.211.4.02.037.044.077.065.113.057.106.113.207.174.313.024.045.052.093.081.142.073.122.146.248.218.37.028.049.061.1.089.146.057.094.117.187.174.281l.085.134.23.354c.036.053.073.106.105.159.065.089.13.183.19.277.049.065.093.126.137.191.061.085.121.171.186.256.036.053.077.106.117.159.081.11.162.216.243.321.044.053.085.106.125.162.057.065.109.134.166.2s.089.11.133.167c.081.1.162.2.246.3.049.057.1.113.15.171s.105.122.162.183c.073.09.149.171.227.256.057.061.113.122.166.183s.113.122.17.178.109.113.162.171c.089.089.174.178.263.269.049.049.1.094.146.142s.125.122.186.183.109.1.162.155l.292.268c.041.041.085.077.125.118.113.1.227.2.339.3.041.032.085.069.125.106.069.061.141.118.211.178.04.032.081.065.117.1.125.1.254.207.384.309.032.024.065.053.1.077l.23.183c.028.02.057.041.081.061.141.106.283.211.428.313.032.024.069.049.1.073.254.183.509.358.771.529l.089.061c.162.1.319.2.485.3l.052.032c.089.053.178.11.267.162a.4.4,0,0,1,.069.041c.166.1.331.191.5.285l.077.041c.275.154.557.3.844.443l.044.024a5.874,5.874,0,0,0,.275-2.2,4.264,4.264,0,0,0-.077-.521,23.723,23.723,0,0,1-8.584-14.729,24.123,24.123,0,0,1-.222-6.012,41.49,41.49,0,0,0-4.537,1.68c-.008.537,0,1.082.024,1.627l.008.113c0,.081.008.162.016.248Z" transform="translate(-67.07 -143.967)" fill="#63d551" fill-rule="evenodd"/>
          <path id="Path_978786" data-name="Path 978786" d="M121.5,66.51h29.235V83.065c0,6.8-29.235,7.692-29.235,0Z" transform="translate(-112.673 -58.773)" fill="#59616e" fill-rule="evenodd"/>
          <path id="Path_978787" data-name="Path 978787" d="M150.735,73.173,136.12,78.355,121.5,73.173V66.51h29.235Z" transform="translate(-112.673 -58.773)" fill="#505763" fill-rule="evenodd"/>
          <path id="Path_978788" data-name="Path 978788" d="M93.274,18.765l22.905,8.119L93.274,35l-22.9-8.115Z" transform="translate(-69.828 -18.765)" fill="#4d525d" fill-rule="evenodd"/>
          <path id="Path_978789" data-name="Path 978789" d="M284.319,303.651a15.874,15.874,0,0,1,15.464,0,15.882,15.882,0,0,1,15.468,0v20.574a15.881,15.881,0,0,0-15.468,0,15.873,15.873,0,0,0-15.464,0Z" transform="translate(-249.109 -255.804)" fill="#ffba57" fill-rule="evenodd"/>
          <path id="Path_978790" data-name="Path 978790" d="M369.607,123.268h19.968a1.08,1.08,0,0,1,1.071,1.082v11.743a1.08,1.08,0,0,1-1.071,1.082h-11.99l-2.852,1.66-2.852,1.656-.024-3.315h-2.25a1.083,1.083,0,0,1-1.074-1.082V124.35a1.083,1.083,0,0,1,1.074-1.082Z" transform="translate(-319.677 -106.334)" fill="#57a3ff" fill-rule="evenodd"/>
          <path id="Path_978791" data-name="Path 978791" d="M125.39,97.586V88.369l-3.89-1.375V100.23a3.409,3.409,0,0,0,1.539,2.717,11.215,11.215,0,0,0,3.838,1.725A3.382,3.382,0,0,1,125.39,102Z" transform="translate(-112.673 -75.938)" fill="#505763" fill-rule="evenodd"/>
          <path id="Path_978792" data-name="Path 978792" d="M83.259,26.5,99.184,20.86l-5.91-2.095-22.9,8.119,5.91,2.091,2.375-.842Z" transform="translate(-69.828 -18.765)" fill="#454a54" fill-rule="evenodd"/>
          <path id="Path_978793" data-name="Path 978793" d="M391.231,209.094H389.05l.024,3.315,2.173-1.261Z" transform="translate(-336.87 -178.253)" fill="#4e93e6" fill-rule="evenodd"/>
          <path id="Path_978794" data-name="Path 978794" d="M370.715,136.093V124.35a1.083,1.083,0,0,1,1.074-1.082h-2.182a1.083,1.083,0,0,0-1.074,1.082v11.743a1.083,1.083,0,0,0,1.074,1.082h2.181A1.083,1.083,0,0,1,370.715,136.093Z" transform="translate(-319.677 -106.334)" fill="#4e93e6" fill-rule="evenodd"/>
        </g>
        <path id="Path_978795" data-name="Path 978795" d="M44.524,91.7a35.29,35.29,0,0,1-4,.951,1,1,0,1,1-.348-1.971,33.6,33.6,0,0,0,3.771-.89.985.985,0,0,1,.91.174,1,1,0,0,1-.331,1.736Zm-19.685-2a34.05,34.05,0,0,1-3.621-1.38,1,1,0,1,0-.817,1.825,35.346,35.346,0,0,0,3.848,1.461,1,1,0,1,0,.591-1.906Zm27.831-4.038a33.247,33.247,0,0,1-3.338,1.962,1,1,0,0,0,.914,1.776,34.717,34.717,0,0,0,3.549-2.088,1,1,0,1,0-1.125-1.651ZM34.384,91.173a34.346,34.346,0,0,1-3.868-.243,1,1,0,1,0-.243,1.983,36.729,36.729,0,0,0,4.107.259,1,1,0,1,0,0-2ZM2.094,61.117a32.552,32.552,0,0,1-.069-3.873,1,1,0,1,0-2-.081A35.815,35.815,0,0,0,.1,61.279a1,1,0,1,0,1.991-.162ZM1.927,52.26a1,1,0,0,0,.858-.773A33.462,33.462,0,0,1,3.862,47.76a1,1,0,1,0-1.886-.66A35.223,35.223,0,0,0,.835,51.05a1,1,0,0,0,1.092,1.21ZM6.848,75.733a1,1,0,1,0-1.7,1.052A34.73,34.73,0,0,0,7.52,80.147,1,1,0,1,0,9.078,78.9a33.012,33.012,0,0,1-2.23-3.164Zm-3.8-8.882a1,1,0,1,0-1.934.506A35.844,35.844,0,0,0,2.389,71.27a1,1,0,1,0,1.857-.732,34.022,34.022,0,0,1-1.194-3.686ZM6.286,42.484a34.283,34.283,0,0,1,2.12-3.241A1,1,0,1,0,6.8,38.053,36.712,36.712,0,0,0,4.55,41.5a1,1,0,0,0,1.737.987Zm9.864,42.992A34.2,34.2,0,0,1,13.088,83.1a1,1,0,1,0-1.307,1.509,34.9,34.9,0,0,0,3.249,2.521,1,1,0,1,0,1.121-1.651ZM12.274,34.9a33.656,33.656,0,0,1,2.974-2.48,1,1,0,1,0-1.194-1.6,35.676,35.676,0,0,0-3.16,2.638,1,1,0,1,0,1.38,1.445ZM78.128,63.7V84.165a1,1,0,0,1-1.463.886,14.938,14.938,0,0,0-14.576.005,1,1,0,0,1-.907,0A14.929,14.929,0,0,0,46.61,85.05a1,1,0,0,1-1.463-.885V80.9L44.919,81l-.03.014A24.737,24.737,0,0,1,34.53,83.292a24.457,24.457,0,0,1-5.523-.632.992.992,0,0,1-.186-.045,24.638,24.638,0,0,1-5.086-1.831h0a1,1,0,0,1-.241-.12,24.625,24.625,0,0,1-13.6-22.4.991.991,0,0,1,0-.226,24.6,24.6,0,0,1,1.123-6.808.979.979,0,0,1,.036-.11c.144-.451.3-.9.47-1.341a24.786,24.786,0,0,1,7.2-10.065V27.806l-7.632-2.685a1,1,0,0,1,0-1.885l22.943-8.076a1,1,0,0,1,.664,0l22.942,8.077a1,1,0,0,1,0,1.885L50,27.807V39.424a24.658,24.658,0,0,1,5.074,5.553.99.99,0,0,1,.083.125A24.711,24.711,0,0,1,59.03,61.54a20.313,20.313,0,0,1,2.6,1.044,16.959,16.959,0,0,1,15.957.23,1,1,0,0,1,.537.886ZM56.9,54.944a22.637,22.637,0,0,0-2.771-7.713A6.538,6.538,0,0,0,52.6,49.325a9.653,9.653,0,0,0-.6,5.623,9.518,9.518,0,0,1-.737,5.963,16.191,16.191,0,0,1,5.813.117,22.57,22.57,0,0,0-.179-6.085Zm-7.246-13.2c-.818,1.652-3,2.867-5.833,3.678.417.092.812.18,1.144.259a7.5,7.5,0,0,1,1.1.311A1.35,1.35,0,0,1,47.2,47.137c.186,1.321-1.72,3.176-2.735,3.527-1.444.5-1.675,1.458-1.96,3.11-.259,1.5-.581,3.37-2.714,4.191a4.993,4.993,0,0,1-3.456-.342c-.17-.06-.386-.137-.576-.194a8.423,8.423,0,0,0,.273,1.224c.341,1.2,1.311,1.882,2.433,2.672a8.388,8.388,0,0,1,3.5,3.917,22.721,22.721,0,0,0,3.188,5.468V63.7a1,1,0,0,1,.536-.885,19.54,19.54,0,0,1,3.079-1.3c1.707-3.231,1.5-4.646,1.263-6.277a11.605,11.605,0,0,1,.7-6.606,8.762,8.762,0,0,1,2.126-2.96l.161-.167a22.645,22.645,0,0,0-3.362-3.759Zm-4.5,36.912V73.492c-2.336-1.754-4.5-6.06-5.058-7.547a6.594,6.594,0,0,0-2.777-2.989A7.023,7.023,0,0,1,34.107,59.2c-.446-1.567-.591-2.754.152-3.45.758-.712,1.766-.355,2.741-.01a3.708,3.708,0,0,0,2.071.36c1.026-.4,1.207-1.185,1.462-2.665.273-1.582.646-3.748,3.275-4.659a3.878,3.878,0,0,0,1.137-1.037c-.59-.152-1.716-.4-2.589-.585-1.751-.379-2.849-.622-3.316-.79l-.006,0a44.671,44.671,0,0,1-5.347.316,39.964,39.964,0,0,1-5.765-.4c-1.139,3.282-3.145,3.342-5.089,3.4a9.373,9.373,0,0,0-3.474.577l-.458.187a28.223,28.223,0,0,1-6.131,1.97,22.751,22.751,0,0,0-.789,4.222,41.266,41.266,0,0,1,10.265-2.607c4.5-.315,6.327,1.959,6.54,4.193A5.032,5.032,0,0,1,24.626,63.7a1.851,1.851,0,0,0-1.393,1.76,3.6,3.6,0,0,0,.741,2.1c.778,1.138,1.209,2.107.141,5.079a2.781,2.781,0,0,0,.4,2.455,6.53,6.53,0,0,1,.8,2.483,6.8,6.8,0,0,1-.1,1.7,22.665,22.665,0,0,0,3.468,1.245c2.849-4.188,6.962-5.053,11.94-2.487a12.56,12.56,0,0,0,3.7,1.041q.415-.2.821-.414ZM14.431,24.178l5.563,1.957a1,1,0,0,1,.121.043l14.248,5.013,7.757-2.729V27.288L34.1,25.144a1,1,0,1,1,.517-1.931l8.756,2.343a1,1,0,0,1,.741.966v1.238L48.6,26.183a.984.984,0,0,1,.147-.052L54.3,24.178,34.363,17.161Zm6.287,4.332V40.267c0,1.574,1.984,2.582,3.648,3.15a30.251,30.251,0,0,0,9.318,1.261,35.513,35.513,0,0,0,10.184-1.351C46.5,42.491,48,41.376,48,40.267V28.511l-3.884,1.367v5.732a1,1,0,0,1-2,0V30.581l-7.425,2.613a1,1,0,0,1-.663,0ZM13.512,50.232a35.571,35.571,0,0,0,4.631-1.642l.464-.189a11.3,11.3,0,0,1,4.166-.723c1.689-.049,2.512-.073,3.158-1.762a20.6,20.6,0,0,1-2.21-.607c-2.7-.92-4-2.138-4.586-3.3A22.7,22.7,0,0,0,13.512,50.232Zm9.814,28.076a4.4,4.4,0,0,0,0-.585,4.8,4.8,0,0,0-.6-1.75,4.7,4.7,0,0,1-.489-4.013c.8-2.233.535-2.625.09-3.275a5.543,5.543,0,0,1-1.085-3.09,3.825,3.825,0,0,1,3.145-3.883,3.076,3.076,0,0,0,2.41-3.3c-.162-1.7-1.77-2.575-4.411-2.389a39.623,39.623,0,0,0-10.5,2.8A22.576,22.576,0,0,0,23.326,78.307ZM41,80.352a9.565,9.565,0,0,1-1.288-.542c-3.815-1.966-6.672-1.6-8.888,1.175a22.574,22.574,0,0,0,7.4.005A23,23,0,0,0,41,80.352ZM60.636,82.6V64.322a18,18,0,0,0-2.871-1.082,1.01,1.01,0,0,1-.205-.057,14.554,14.554,0,0,0-10.414,1.13V82.585a16.935,16.935,0,0,1,6.692-1.416,17.456,17.456,0,0,1,6.8,1.431ZM76.13,64.313a14.786,14.786,0,0,0-13.495.008V82.6a16.709,16.709,0,0,1,13.495-.015ZM58.365,73.807a14.186,14.186,0,0,0-9.063.01,1,1,0,1,0,.657,1.888,12.067,12.067,0,0,1,7.81.01,1,1,0,1,0,.6-1.908ZM73.94,69.8a14.158,14.158,0,0,0-9.064.01,1,1,0,1,0,.657,1.888,12.044,12.044,0,0,1,7.809.01,1,1,0,1,0,.6-1.907Zm-15.574,0a14.158,14.158,0,0,0-9.064.01,1,1,0,1,0,.657,1.888,12.044,12.044,0,0,1,7.809.01,1,1,0,1,0,.6-1.907Zm6.51-4a1,1,0,1,0,.657,1.888,12.04,12.04,0,0,1,7.809.01,1,1,0,1,0,.6-1.907A14.156,14.156,0,0,0,64.876,65.8Zm9.063,12.016a14.186,14.186,0,0,0-9.063.01,1,1,0,1,0,.657,1.888,12.066,12.066,0,0,1,7.81.01,1,1,0,1,0,.6-1.908Zm0-4.01a14.186,14.186,0,0,0-9.063.01,1,1,0,1,0,.657,1.888,12.067,12.067,0,0,1,7.81.01,1,1,0,1,0,.6-1.908ZM49.63,67.745a1,1,0,0,0,.329-.056,12.041,12.041,0,0,1,7.809.01,1,1,0,0,0,.6-1.907,14.156,14.156,0,0,0-9.065.01,1,1,0,0,0,.329,1.944Zm8.734,10.072a14.186,14.186,0,0,0-9.063.01,1,1,0,1,0,.657,1.888,12.066,12.066,0,0,1,7.81.01,1,1,0,1,0,.6-1.908Zm24.6-43.795V45.7a2.076,2.076,0,0,1-2.072,2.076H69.151l-5.482,3.164a1,1,0,0,1-1.5-.859l-.016-2.306H60.892A2.078,2.078,0,0,1,58.816,45.7V34.023a2.078,2.078,0,0,1,2.076-2.076h20a2.076,2.076,0,0,1,2.072,2.076Zm-2,0a.079.079,0,0,0-.073-.077h-20a.082.082,0,0,0-.077.077V45.7a.082.082,0,0,0,.077.077h2.254a1,1,0,0,1,1,.992l.012,1.582,4.226-2.44a1,1,0,0,1,.5-.134h12.01a.079.079,0,0,0,.073-.077ZM77.9,36.515H63.878a1,1,0,1,0,0,2H77.9a1,1,0,1,0,0-2Zm0,4.7H63.878a1,1,0,1,0,0,2H77.9a1,1,0,0,0,0-2Z" transform="translate(0)"/>
      </g>
    </g>
  </g>
</svg>
