<svg xmlns="http://www.w3.org/2000/svg" width="35.533" height="35.533" viewBox="0 0 35.533 35.533">
  <g id="chichen-itza-pyramid_2220149" transform="translate(-7 -7)">
    <g id="LINE_68_" transform="translate(12.685 24.056)">
      <g id="Group_1144145" data-name="Group 1144145">
        <path id="Path_978738" data-name="Path 978738" d="M24.523,32.421H15.711a.711.711,0,0,1,0-1.421h8.812a.711.711,0,0,1,0,1.421Z" transform="translate(-15 -31)"/>
      </g>
    </g>
    <g id="LINE_69_" transform="translate(10.553 28.32)">
      <g id="Group_1144146" data-name="Group 1144146" transform="translate(0)">
        <path id="Path_978739" data-name="Path 978739" d="M23.228,38.421H12.711a.711.711,0,1,1,0-1.421H23.228a.711.711,0,1,1,0,1.421Z" transform="translate(-12 -37)"/>
      </g>
    </g>
    <g id="LINE_70_" transform="translate(8.421 32.584)">
      <g id="Group_1144147" data-name="Group 1144147" transform="translate(0 0)">
        <path id="Path_978740" data-name="Path 978740" d="M21.934,44.421H9.711a.711.711,0,1,1,0-1.421H21.934a.711.711,0,1,1,0,1.421Z" transform="translate(-9 -43)"/>
      </g>
    </g>
    <g id="LINE_71_" transform="translate(7 36.848)">
      <g id="Group_1144148" data-name="Group 1144148">
        <path id="Path_978741" data-name="Path 978741" d="M20.929,50.421H7.711a.711.711,0,0,1,0-1.421H20.929a.711.711,0,1,1,0,1.421Z" transform="translate(-7 -49)"/>
      </g>
    </g>
    <g id="LINE_72_" transform="translate(27.893 36.848)">
      <g id="Group_1144149" data-name="Group 1144149">
        <path id="Path_978742" data-name="Path 978742" d="M50.329,50.421H37.111a.711.711,0,1,1,0-1.421H50.329a.711.711,0,1,1,0,1.421Z" transform="translate(-36.4 -49)"/>
      </g>
    </g>
    <g id="LINE_73_" transform="translate(27.467 32.584)">
      <g id="Group_1144150" data-name="Group 1144150" transform="translate(0 0)">
        <path id="Path_978743" data-name="Path 978743" d="M43.759,44.421H36.511a.711.711,0,1,1,0-1.421h7.249a.711.711,0,0,1,0,1.421Z" transform="translate(-35.8 -43)"/>
      </g>
    </g>
    <g id="LINE_74_" transform="translate(27.041 28.32)">
      <g id="Group_1144151" data-name="Group 1144151">
        <path id="Path_978744" data-name="Path 978744" d="M41.454,38.421H35.911a.711.711,0,1,1,0-1.421h5.543a.711.711,0,1,1,0,1.421Z" transform="translate(-35.2 -37)"/>
      </g>
    </g>
    <g id="LINE_75_" transform="translate(26.614 24.056)">
      <g id="Group_1144152" data-name="Group 1144152">
        <path id="Path_978745" data-name="Path 978745" d="M39.148,32.421H35.311a.711.711,0,0,1,0-1.421h3.838a.711.711,0,1,1,0,1.421Z" transform="translate(-34.6 -31)"/>
      </g>
    </g>
    <g id="LINE_76_" transform="translate(32.228 7)">
      <g id="Group_1144153" data-name="Group 1144153" transform="translate(0)">
        <path id="Path_978746" data-name="Path 978746" d="M43.211,12.685a.711.711,0,0,1-.711-.711V7.711a.711.711,0,1,1,1.421,0v4.264A.711.711,0,0,1,43.211,12.685Z" transform="translate(-42.5 -7)"/>
      </g>
    </g>
    <g id="LINE_77_" transform="translate(15.883 7)">
      <g id="Group_1144154" data-name="Group 1144154">
        <path id="Path_978747" data-name="Path 978747" d="M20.211,12.685a.711.711,0,0,1-.711-.711V7.711a.711.711,0,1,1,1.421,0v4.264A.711.711,0,0,1,20.211,12.685Z" transform="translate(-19.5 -7)"/>
      </g>
    </g>
    <g id="LINE_78_" transform="translate(15.883 11.264)">
      <g id="Group_1144155" data-name="Group 1144155" transform="translate(0 0)">
        <path id="Path_978748" data-name="Path 978748" d="M36.556,14.421H20.211a.711.711,0,0,1,0-1.421H36.556a.711.711,0,1,1,0,1.421Z" transform="translate(-19.5 -13)"/>
      </g>
    </g>
    <g id="LINE_79_" transform="translate(15.883 7)">
      <g id="Group_1144156" data-name="Group 1144156">
        <path id="Path_978749" data-name="Path 978749" d="M36.556,8.421H20.211a.711.711,0,0,1,0-1.421H36.556a.711.711,0,1,1,0,1.421Z" transform="translate(-19.5 -7)"/>
      </g>
    </g>
    <g id="LINE_80_" transform="translate(30.096 11.264)">
      <g id="Group_1144157" data-name="Group 1144157" transform="translate(0 0)">
        <path id="Path_978750" data-name="Path 978750" d="M40.211,22.949a.711.711,0,0,1-.711-.711V13.711a.711.711,0,1,1,1.421,0v8.528A.711.711,0,0,1,40.211,22.949Z" transform="translate(-39.5 -13)"/>
      </g>
    </g>
    <g id="LINE_81_" transform="translate(18.015 11.264)">
      <g id="Group_1144158" data-name="Group 1144158" transform="translate(0 0)">
        <path id="Path_978751" data-name="Path 978751" d="M23.211,22.949a.711.711,0,0,1-.711-.711V13.711a.711.711,0,1,1,1.421,0v8.528A.711.711,0,0,1,23.211,22.949Z" transform="translate(-22.5 -13)"/>
      </g>
    </g>
    <g id="LINE_82_" transform="translate(26.188 19.792)">
      <g id="Group_1144159" data-name="Group 1144159">
        <path id="Path_978752" data-name="Path 978752" d="M36.842,47.741a.711.711,0,0,1-.706-.64L34,25.782a.711.711,0,0,1,1.415-.141L37.55,46.96a.711.711,0,0,1-.637.778c-.024,0-.048,0-.072,0Z" transform="translate(-34 -25)"/>
      </g>
    </g>
    <g id="LINE_83_" transform="translate(19.791 19.791)">
      <g id="Group_1144160" data-name="Group 1144160">
        <path id="Path_978753" data-name="Path 978753" d="M25.711,47.741a.621.621,0,0,1-.072,0A.712.712,0,0,1,25,46.959l2.132-21.32a.711.711,0,1,1,1.415.141L26.418,47.1A.711.711,0,0,1,25.711,47.741Z" transform="translate(-24.999 -24.999)"/>
      </g>
    </g>
    <g id="ARC_23_" transform="translate(21.924 14.176)">
      <g id="Group_1144161" data-name="Group 1144161" transform="translate(0 0)">
        <path id="Path_978754" data-name="Path 978754" d="M32.975,20.582a.711.711,0,0,1-.711-.711,1.263,1.263,0,0,0-.419-1.008,1.549,1.549,0,0,0-1-.344,1.307,1.307,0,0,0-1.421,1.352.711.711,0,1,1-1.421,0,2.844,2.844,0,0,1,5.685,0A.711.711,0,0,1,32.975,20.582Z" transform="translate(-28 -17.098)"/>
      </g>
    </g>
    <g id="LINE_84_" transform="translate(26.188 16.239)">
      <g id="Group_1144162" data-name="Group 1144162">
        <path id="Path_978755" data-name="Path 978755" d="M34.711,24.975A.711.711,0,0,1,34,24.264V20.711a.711.711,0,1,1,1.421,0v3.553A.711.711,0,0,1,34.711,24.975Z" transform="translate(-34 -20)"/>
      </g>
    </g>
    <g id="LINE_85_" transform="translate(21.924 16.239)">
      <g id="Group_1144163" data-name="Group 1144163">
        <path id="Path_978756" data-name="Path 978756" d="M28.711,24.975A.711.711,0,0,1,28,24.264V20.711a.711.711,0,1,1,1.421,0v3.553A.711.711,0,0,1,28.711,24.975Z" transform="translate(-28 -20)"/>
      </g>
    </g>
    <g id="LINE_86_" transform="translate(33.294 19.792)">
      <g id="Group_1144164" data-name="Group 1144164" transform="translate(0)">
        <path id="Path_978757" data-name="Path 978757" d="M44.711,30.685A.711.711,0,0,1,44,29.975V25.711a.711.711,0,1,1,1.421,0v4.264A.711.711,0,0,1,44.711,30.685Z" transform="translate(-44 -25)"/>
      </g>
    </g>
    <g id="LINE_87_" transform="translate(14.817 19.792)">
      <g id="Group_1144165" data-name="Group 1144165" transform="translate(0)">
        <path id="Path_978758" data-name="Path 978758" d="M37.188,26.421H18.711a.711.711,0,0,1,0-1.421H37.188a.711.711,0,1,1,0,1.421Z" transform="translate(-18 -25)"/>
      </g>
    </g>
    <g id="LINE_88_" transform="translate(37.558 32.584)">
      <g id="Group_1144166" data-name="Group 1144166" transform="translate(0 0)">
        <path id="Path_978759" data-name="Path 978759" d="M52.843,44.421H50.711a.711.711,0,1,1,0-1.421h2.132a.711.711,0,1,1,0,1.421Z" transform="translate(-50 -43)"/>
      </g>
    </g>
    <g id="LINE_89_" transform="translate(35.426 28.32)">
      <g id="Group_1144167" data-name="Group 1144167">
        <path id="Path_978760" data-name="Path 978760" d="M49.843,38.421H47.711a.711.711,0,0,1,0-1.421h2.132a.711.711,0,0,1,0,1.421Z" transform="translate(-47 -37)"/>
      </g>
    </g>
    <g id="LINE_90_" transform="translate(33.294 24.056)">
      <g id="Group_1144168" data-name="Group 1144168" transform="translate(0)">
        <path id="Path_978761" data-name="Path 978761" d="M46.843,32.421H44.711a.711.711,0,0,1,0-1.421h2.132a.711.711,0,1,1,0,1.421Z" transform="translate(-44 -31)"/>
      </g>
    </g>
    <g id="LINE_91_" transform="translate(35.426 24.056)">
      <g id="Group_1144169" data-name="Group 1144169">
        <path id="Path_978762" data-name="Path 978762" d="M47.711,36.685A.711.711,0,0,1,47,35.975V31.711a.711.711,0,1,1,1.421,0v4.264A.711.711,0,0,1,47.711,36.685Z" transform="translate(-47 -31)"/>
      </g>
    </g>
    <g id="LINE_92_" transform="translate(37.558 28.32)">
      <g id="Group_1144170" data-name="Group 1144170">
        <path id="Path_978763" data-name="Path 978763" d="M50.711,42.685A.711.711,0,0,1,50,41.975V37.711a.711.711,0,1,1,1.421,0v4.264A.711.711,0,0,1,50.711,42.685Z" transform="translate(-50 -37)"/>
      </g>
    </g>
    <g id="LINE_93_" transform="translate(39.69 32.584)">
      <g id="Group_1144171" data-name="Group 1144171" transform="translate(0 0)">
        <path id="Path_978764" data-name="Path 978764" d="M53.711,48.685A.711.711,0,0,1,53,47.975V43.711a.711.711,0,0,1,1.421,0v4.264A.711.711,0,0,1,53.711,48.685Z" transform="translate(-53 -43)"/>
      </g>
    </g>
    <g id="LINE_94_" transform="translate(14.817 19.792)">
      <g id="Group_1144172" data-name="Group 1144172" transform="translate(0)">
        <path id="Path_978765" data-name="Path 978765" d="M18.711,30.685A.711.711,0,0,1,18,29.975V25.711a.711.711,0,0,1,1.421,0v4.264A.711.711,0,0,1,18.711,30.685Z" transform="translate(-18 -25)"/>
      </g>
    </g>
    <g id="LINE_95_" transform="translate(8.421 32.584)">
      <g id="Group_1144173" data-name="Group 1144173" transform="translate(0 0)">
        <path id="Path_978766" data-name="Path 978766" d="M9.711,48.685A.711.711,0,0,1,9,47.975V43.711a.711.711,0,0,1,1.421,0v4.264A.711.711,0,0,1,9.711,48.685Z" transform="translate(-9 -43)"/>
      </g>
    </g>
    <g id="LINE_96_" transform="translate(10.553 28.32)">
      <g id="Group_1144174" data-name="Group 1144174">
        <path id="Path_978767" data-name="Path 978767" d="M12.711,42.685A.711.711,0,0,1,12,41.975V37.711a.711.711,0,1,1,1.421,0v4.264A.711.711,0,0,1,12.711,42.685Z" transform="translate(-12 -37)"/>
      </g>
    </g>
    <g id="LINE_97_" transform="translate(12.685 24.056)">
      <g id="Group_1144175" data-name="Group 1144175">
        <path id="Path_978768" data-name="Path 978768" d="M15.711,36.685A.711.711,0,0,1,15,35.975V31.711a.711.711,0,0,1,1.421,0v4.264A.711.711,0,0,1,15.711,36.685Z" transform="translate(-15 -31)"/>
      </g>
    </g>
    <g id="LINE_260_" transform="translate(7 41.112)">
      <g id="Group_1144176" data-name="Group 1144176">
        <path id="Path_978769" data-name="Path 978769" d="M9.132,56.421H7.711a.711.711,0,1,1,0-1.421H9.132a.711.711,0,1,1,0,1.421Z" transform="translate(-7 -55)"/>
      </g>
    </g>
    <g id="LINE_261_" transform="translate(11.264 41.112)">
      <g id="Group_1144177" data-name="Group 1144177" transform="translate(0)">
        <path id="Path_978770" data-name="Path 978770" d="M43.558,56.421H13.711a.711.711,0,1,1,0-1.421H43.558a.711.711,0,1,1,0,1.421Z" transform="translate(-13 -55)"/>
      </g>
    </g>
    <g id="LINE_262_" transform="translate(41.112 36.848)">
      <g id="Group_1144178" data-name="Group 1144178">
        <path id="Path_978771" data-name="Path 978771" d="M55.711,54.685A.711.711,0,0,1,55,53.975V49.711a.711.711,0,0,1,1.421,0v4.264A.711.711,0,0,1,55.711,54.685Z" transform="translate(-55 -49)"/>
      </g>
    </g>
    <g id="LINE_263_" transform="translate(7 36.848)">
      <g id="Group_1144179" data-name="Group 1144179">
        <path id="Path_978772" data-name="Path 978772" d="M7.711,54.685A.711.711,0,0,1,7,53.975V49.711a.711.711,0,0,1,1.421,0v4.264A.711.711,0,0,1,7.711,54.685Z" transform="translate(-7 -49)"/>
      </g>
    </g>
  </g>
</svg>
