<svg xmlns="http://www.w3.org/2000/svg" width="35.03" height="35.409" viewBox="0 0 35.03 35.409">
  <path id="Path_978773" data-name="Path 978773" d="M36.756,32.241h-.6V31.12a1.011,1.011,0,0,0-1.009-1.009h-.7V28.989A1.011,1.011,0,0,0,33.44,27.98h-.81l-.214-5.436a.519.519,0,1,0-1.037.041l.212,5.4h-2.2l.547-13.926h1.109l.24,6.11a.519.519,0,1,0,1.037-.041l-.238-6.069H33.44a1.011,1.011,0,0,0,1.009-1.01V12.6a1.079,1.079,0,0,0,1.2-.24l.77-.8a1.077,1.077,0,0,0-.195-1.655L21.123.254a1.626,1.626,0,0,0-1.746,0L4.274,9.911a1.077,1.077,0,0,0-.195,1.656l.77.8a1.081,1.081,0,0,0,1.2.24v.439a1.011,1.011,0,0,0,1.009,1.01H8.417L7.87,27.98H7.06a1.011,1.011,0,0,0-1.009,1.009V30.11h-.7A1.011,1.011,0,0,0,4.345,31.12v1.121h-.6A1.011,1.011,0,0,0,2.735,33.25V34.4a1.011,1.011,0,0,0,1.009,1.01h15.3a.519.519,0,1,0,0-1.037H3.772V33.278H36.728v1.093H21.46a.519.519,0,1,0,0,1.037h15.3a1.011,1.011,0,0,0,1.009-1.01V33.25a1.011,1.011,0,0,0-1.009-1.009ZM5.646,11.65a.04.04,0,0,1-.05-.006l-.77-.8a.04.04,0,0,1,.007-.061l15.1-9.656a.585.585,0,0,1,.629,0l15.1,9.656a.04.04,0,0,1,.007.061l-.77.8a.04.04,0,0,1-.05.006L33.8,10.974,20.53,2.491a.519.519,0,0,0-.559,0Zm26.088-.764H8.767L20.25,3.544ZM7.088,13.016V11.959l.045-.029.011-.007H33.356l0,0,.052.034v1.057H7.088ZM28.9,14.054,28.352,27.98H25.8l-.547-13.926ZM24.765,27.98h-2.2l.547-13.926h1.109ZM22.071,14.054,21.524,27.98H18.976l-.547-13.926ZM17.938,27.98h-2.2l.547-13.926h1.109ZM15.244,14.054,14.7,27.98H12.149L11.6,14.054ZM11.111,27.98h-2.2l.547-13.926h1.109ZM7.088,29.017H33.412V30.11H7.088Zm28.03,3.224H5.382V31.147H35.118Z" transform="translate(-2.735)"/>
</svg>
