<svg xmlns="http://www.w3.org/2000/svg" xmlns:xlink="http://www.w3.org/1999/xlink" width="108" height="108" viewBox="0 0 108 108">
  <defs>
    <filter id="Path_978624" x="0" y="0" width="108" height="108" filterUnits="userSpaceOnUse">
      <feOffset dy="3" input="SourceAlpha"/>
      <feGaussianBlur stdDeviation="3" result="blur"/>
      <feFlood flood-opacity="0.161"/>
      <feComposite operator="in" in2="blur"/>
      <feComposite in="SourceGraphic"/>
    </filter>
  </defs>
  <g id="Group_1144505" data-name="Group 1144505" transform="translate(-197 -2691)">
    <g id="Group_1144213" data-name="Group 1144213" transform="translate(10 838)">
      <g transform="matrix(1, 0, 0, 1, 187, 1853)" filter="url(#Path_978624)">
        <g id="Path_978624-2" data-name="Path 978624" transform="translate(9 6)" fill="#fff">
          <path d="M 45 88.5 C 39.12687683105469 88.5 33.43022537231445 87.35007476806641 28.06830024719238 85.08217620849609 C 22.88852500915527 82.89131164550781 18.23629951477051 79.75458526611328 14.2408504486084 75.75914764404297 C 10.24541282653809 71.76370239257812 7.108687400817871 67.11147308349609 4.917825222015381 61.93170166015625 C 2.649924993515015 56.56977462768555 1.5 50.87312316894531 1.5 45 C 1.5 39.12687683105469 2.649924993515015 33.43022537231445 4.917825222015381 28.06830024719238 C 7.108687400817871 22.88852500915527 10.24541282653809 18.23629951477051 14.2408504486084 14.2408504486084 C 18.23629951477051 10.24541282653809 22.88852500915527 7.108687400817871 28.06830024719238 4.917825222015381 C 33.43022537231445 2.649924993515015 39.12687683105469 1.5 45 1.5 C 50.87312316894531 1.5 56.56977462768555 2.649924993515015 61.93170166015625 4.917825222015381 C 67.11147308349609 7.108687400817871 71.76370239257812 10.24541282653809 75.75914764404297 14.2408504486084 C 79.75458526611328 18.23629951477051 82.89131164550781 22.88852500915527 85.08217620849609 28.06830024719238 C 87.35007476806641 33.43022537231445 88.5 39.12687683105469 88.5 45 C 88.5 50.87312316894531 87.35007476806641 56.56977462768555 85.08217620849609 61.93170166015625 C 82.89131164550781 67.11147308349609 79.75458526611328 71.76370239257812 75.75914764404297 75.75914764404297 C 71.76370239257812 79.75458526611328 67.11147308349609 82.89131164550781 61.93170166015625 85.08217620849609 C 56.56977462768555 87.35007476806641 50.87312316894531 88.5 45 88.5 Z" stroke="none"/>
          <path d="M 45 3 C 39.32871246337891 3 33.82865524291992 4.110054016113281 28.65262985229492 6.299339294433594 C 23.65165710449219 8.414573669433594 19.15968322753906 11.44334411621094 15.301513671875 15.301513671875 C 11.44334411621094 19.15968322753906 8.414573669433594 23.65165710449219 6.299339294433594 28.65262985229492 C 4.110054016113281 33.82865524291992 3 39.32871246337891 3 45 C 3 50.67128753662109 4.110054016113281 56.17134475708008 6.299339294433594 61.34737396240234 C 8.414573669433594 66.34834289550781 11.44334411621094 70.84031677246094 15.301513671875 74.698486328125 C 19.15968322753906 78.55665588378906 23.65165710449219 81.58542633056641 28.65262985229492 83.70066070556641 C 33.82865524291992 85.88994598388672 39.32871246337891 87 45 87 C 50.67128753662109 87 56.17134475708008 85.88994598388672 61.34737396240234 83.70066070556641 C 66.34834289550781 81.58542633056641 70.84031677246094 78.55665588378906 74.698486328125 74.698486328125 C 78.55665588378906 70.84031677246094 81.58542633056641 66.34834289550781 83.70066070556641 61.34737396240234 C 85.88994598388672 56.17134475708008 87 50.67128753662109 87 45 C 87 39.32871246337891 85.88994598388672 33.82865524291992 83.70066070556641 28.65262985229492 C 81.58542633056641 23.65165710449219 78.55665588378906 19.15968322753906 74.698486328125 15.301513671875 C 70.84031677246094 11.44334411621094 66.34834289550781 8.414573669433594 61.34737396240234 6.299339294433594 C 56.17134475708008 4.110054016113281 50.67128753662109 3 45 3 M 45 0 C 69.85281372070312 0 90 20.14718627929688 90 45 C 90 69.85281372070312 69.85281372070312 90 45 90 C 20.14718627929688 90 0 69.85281372070312 0 45 C 0 20.14718627929688 20.14718627929688 0 45 0 Z" stroke="none" fill="#fa6631"/>
        </g>
      </g>
    </g>
    <g id="shakespeare_2178093" transform="translate(211.112 2686.877)">
      <path id="Path_978955" data-name="Path 978955" d="M114.329,211.323a3.176,3.176,0,0,1,1.4-2.633.693.693,0,0,0,.3-.568q0-.394,0-.791a36.36,36.36,0,0,0-.554-5.894.673.673,0,0,0-.417-.513,3.177,3.177,0,0,1-1.346-4.961.674.674,0,0,0,.1-.654,35.623,35.623,0,0,0-2.927-6.082,3.162,3.162,0,0,1-3.579-3.154,3.141,3.141,0,0,1,.18-1.049.675.675,0,0,0-.13-.663,35.9,35.9,0,0,0-54.259-.048.683.683,0,0,0-.125.681,3.177,3.177,0,0,1-2.991,4.26H49.9a.685.685,0,0,0-.612.333,35.685,35.685,0,0,0-2.847,6.047,3.176,3.176,0,0,1-1.219,5.355.461.461,0,0,0-.318.356,36.055,36.055,0,0,0-.58,6.451c0,.135,0,.269,0,.4a.456.456,0,0,0,.225.384,3.173,3.173,0,0,1,.483,5.13.456.456,0,0,0-.149.423q.215,1.206.507,2.384A3.2,3.2,0,0,0,50.75,218c6.477-6.358,17.24-10.519,29.425-10.519,12.168,0,22.919,4.15,29.4,10.494a3.22,3.22,0,0,0,5.389-1.493q.285-1.144.5-2.316a.674.674,0,0,0-.2-.594,3.167,3.167,0,0,1-.933-2.248Z" transform="translate(-37.42 -129.921)" fill="#f0ecef"/>
      <path id="Path_978956" data-name="Path 978956" d="M277,211.323a3.176,3.176,0,0,1,1.4-2.633.693.693,0,0,0,.3-.568q0-.394,0-.791a36.361,36.361,0,0,0-.554-5.894.673.673,0,0,0-.417-.513,3.177,3.177,0,0,1-1.346-4.962.674.674,0,0,0,.1-.654,35.621,35.621,0,0,0-2.711-5.718.7.7,0,0,0-.61-.336h0a3.181,3.181,0,0,1-3.181-3.181,3.142,3.142,0,0,1,.18-1.049.675.675,0,0,0-.13-.663,35.966,35.966,0,0,0-33-11.94,35.882,35.882,0,0,1,29.527,41.19,31.125,31.125,0,0,1,5.7,4.364,3.224,3.224,0,0,0,5.392-1.5q.283-1.139.493-2.307a.674.674,0,0,0-.2-.594A3.168,3.168,0,0,1,277,211.323Z" transform="translate(-200.086 -129.921)" fill="#e3dfe2"/>
      <path id="Path_978957" data-name="Path 978957" d="M134.5,40.723h-.018a3.381,3.381,0,0,1-2.752-1.59c-4.571-7.469-11.533-14.664-21.19-10.588-9.657-4.076-16.619,3.12-21.19,10.588a3.381,3.381,0,0,1-2.752,1.59H86.58a6.6,6.6,0,1,0,4.776,11.452,21.805,21.805,0,0,0,4.866-.529c.278-9.411,2.716-20.894,14.318-22.495,11.6,1.6,14.04,13.083,14.318,22.495a21.806,21.806,0,0,0,4.866.529A6.6,6.6,0,1,0,134.5,40.723Z" transform="translate(-67.784 -7.864)" fill="#845151"/>
      <path id="Path_978958" data-name="Path 978958" d="M313.237,40.729h-.018a3.381,3.381,0,0,1-2.752-1.59c-4.126-6.741-10.2-13.259-18.445-11.467,5.555,1.261,9.864,6.3,13.027,11.467a3.381,3.381,0,0,0,2.752,1.59h.018a6.593,6.593,0,0,1,2.385,12.6,6.6,6.6,0,1,0,3.032-12.6Z" transform="translate(-246.522 -7.871)" fill="#5a3535"/>
      <path id="Path_978959" data-name="Path 978959" d="M23.137,362.7a1.249,1.249,0,0,1-1.951,1.032,10.559,10.559,0,0,0-12.458.541.747.747,0,0,1-1.217-.581V345.95a1.372,1.372,0,0,1,.392-.962,10.418,10.418,0,0,1,7.421-3.061,10.291,10.291,0,0,1,7.813,3.5Z" transform="translate(-6.341 -273.416)" fill="#ded0cb"/>
      <path id="Path_978960" data-name="Path 978960" d="M123.423,363.694a.747.747,0,0,1-1.217.581,10.559,10.559,0,0,0-12.458-.541A1.249,1.249,0,0,1,107.8,362.7V345.424a10.291,10.291,0,0,1,7.813-3.5,10.418,10.418,0,0,1,7.421,3.061,1.372,1.372,0,0,1,.392.962Z" transform="translate(-91.001 -273.416)" fill="#ded0cb"/>
      <path id="Path_978961" data-name="Path 978961" d="M120.465,349.493v14.642a1.285,1.285,0,0,1-1.67,1.227,10.514,10.514,0,0,0-3.186-.485,10.291,10.291,0,0,0-7.813,3.5v.715a1.249,1.249,0,0,0,1.951,1.032,10.559,10.559,0,0,1,12.458.541.747.747,0,0,0,1.217-.581V352.338a1.381,1.381,0,0,0-.4-.969A10.336,10.336,0,0,0,120.465,349.493Z" transform="translate(-91.001 -279.803)" fill="#c9beb9"/>
      <path id="Path_978962" data-name="Path 978962" d="M20,348.913v14.678a1.286,1.286,0,0,1-1.654,1.233,10.543,10.543,0,0,0-3.026-.436,10.291,10.291,0,0,0-7.813,3.5v1.706a.747.747,0,0,0,1.217.581,10.559,10.559,0,0,1,12.458-.541,1.249,1.249,0,0,0,1.951-1.032V351.321A9.687,9.687,0,0,0,20,348.913Z" transform="translate(-6.34 -279.314)" fill="#c9beb9"/>
      <path id="Path_978963" data-name="Path 978963" d="M172.6,48.558a3.592,3.592,0,0,0-3.251.53.311.311,0,0,1-.481-.255c-.133-10.219-2.733-23.283-16.986-23.276-14.013.007-16.844,12.465-17.159,22.583a.309.309,0,0,1-.42.282,3.225,3.225,0,0,0-2.351-.093c-2.2.82-3.579,4.429-2.329,7.783,1.078,2.893,4.724,4.506,7.119,4.368a.306.306,0,0,1,.3.2c3.235,8.176,9.266,15.868,14.6,15.866,5.423,0,11.646-7.859,14.926-16.129.027.012.053.024.081.035,2.193.843,6.913-.744,8.2-4.084s-.055-6.963-2.248-7.807Z" transform="translate(-109.027 -6.341)" fill="#ffcbbe"/>
      <path id="Path_978964" data-name="Path 978964" d="M265.872,48.727a3.592,3.592,0,0,0-3.251.53A.311.311,0,0,1,262.14,49c-.13-9.936-2.594-22.559-15.833-23.242,7.508,4.224,8.831,14.531,8.789,22.568-.05,9.589-8.1,24.091-15.458,26.215a8.857,8.857,0,0,0,5.279,2.171c5.423,0,11.646-7.859,14.926-16.129.027.012.053.024.081.035,2.193.843,6.913-.744,8.2-4.084s-.055-6.963-2.248-7.807Z" transform="translate(-202.299 -6.51)" fill="#fdad9d"/>
      <path id="Path_978965" data-name="Path 978965" d="M264.564,288.381c0,1.231-1,4.3-2.228,4.3s-2.228-3.066-2.228-4.3,1-1.273,2.228-1.273S264.564,287.151,264.564,288.381Z" transform="translate(-219.58 -227.138)" fill="#ad6b6b"/>
      <path id="Path_978966" data-name="Path 978966" d="M269.881,287.108c-.3,0-.577,0-.836.024.816.066,1.393.315,1.393,1.249a7.258,7.258,0,0,1-1.393,3.833,1.179,1.179,0,0,0,.836.464c1.231,0,2.228-3.066,2.228-4.3S271.111,287.108,269.881,287.108Z" transform="translate(-227.125 -227.138)" fill="#995e5e"/>
      <path id="Path_978967" data-name="Path 978967" d="M232.284,227.026l-6.676-1.95a1.869,1.869,0,0,0-.618-.073c-.99.049-1.984.049-2.974,0a1.869,1.869,0,0,0-.618.073l-6.676,1.95a.856.856,0,0,0-.2,1.555,8.641,8.641,0,0,0,4.346,1.027,6.9,6.9,0,0,0,3.672-.862,1.783,1.783,0,0,1,1.924,0,6.9,6.9,0,0,0,3.672.862,8.64,8.64,0,0,0,4.346-1.027A.855.855,0,0,0,232.284,227.026Z" transform="translate(-180.747 -174.708)" fill="#ad6b6b"/>
      <path id="Path_978968" data-name="Path 978968" d="M289.969,234.071l-2.484-.726a1.26,1.26,0,0,1-.61,1.208,11.41,11.41,0,0,1-4.436,1.4,7.32,7.32,0,0,0,3.383.7,8.641,8.641,0,0,0,4.346-1.027A.856.856,0,0,0,289.969,234.071Z" transform="translate(-238.433 -181.752)" fill="#995e5e"/>
      <path id="Path_978969" data-name="Path 978969" d="M78.964,79.738a1.861,1.861,0,0,0,.81-1.526q0-.407,0-.816a37.675,37.675,0,0,0-.572-6.084,1.85,1.85,0,0,0-1.152-1.4,2.02,2.02,0,0,1-1.295-1.876,1.987,1.987,0,0,1,.443-1.258,1.85,1.85,0,0,0,.287-1.793A36.887,36.887,0,0,0,74.46,58.7a1.171,1.171,0,0,0-1.147-.556,1.993,1.993,0,0,1-2.263-1.992,1.974,1.974,0,0,1,.114-.66,1.847,1.847,0,0,0-.347-1.817,37.175,37.175,0,0,0-3.726-3.743,8.687,8.687,0,0,0,.4-2.794,7.836,7.836,0,0,0,6.65-7.021,7.769,7.769,0,0,0-7.366-8.429H66.75a2.216,2.216,0,0,1-1.807-1.032c-5.272-8.614-11.214-12.75-17.658-12.295a1.167,1.167,0,0,0-.323.07,20.955,20.955,0,0,0-4.1-.385h-.013a21.251,21.251,0,0,0-4.08.379,1.18,1.18,0,0,0-.181-.033c-6.588-.643-12.652,3.484-18.026,12.264a2.212,2.212,0,0,1-1.8,1.032H18.74a7.768,7.768,0,0,0,.212,15.526,8.688,8.688,0,0,0,.273,2.084,37.346,37.346,0,0,0-4.438,4.326,1.854,1.854,0,0,0-.341,1.848,1.983,1.983,0,0,1,.12.679,2.013,2.013,0,0,1-2.011,2.011h-.04a1.857,1.857,0,0,0-1.654.908,36.964,36.964,0,0,0-2.94,6.246,1.17,1.17,0,0,0,.3,1.252,2.009,2.009,0,0,1,.516.777A11.618,11.618,0,0,0,.726,70.753,2.531,2.531,0,0,0,0,72.534V90.278a1.9,1.9,0,0,0,1.09,1.73,1.9,1.9,0,0,0,2.032-.238,9.241,9.241,0,0,1,5.862-2.057,9.183,9.183,0,0,1,5.21,1.576,2.423,2.423,0,0,0,2.495.129c.037-.02.073-.041.108-.063.036.022.071.043.108.063A2.424,2.424,0,0,0,19.4,91.29a9.389,9.389,0,0,1,11.071.48,1.917,1.917,0,0,0,3.121-1.493V79.562a50.451,50.451,0,0,1,9.164-.831,48.954,48.954,0,0,1,13.72,1.909,1.17,1.17,0,1,0,.656-2.247,51.293,51.293,0,0,0-14.376-2,52.924,52.924,0,0,0-9.164.792V72.534a2.529,2.529,0,0,0-.726-1.781,11.7,11.7,0,0,0-16.07-.426,11.584,11.584,0,0,0-5.624-2.784,4.37,4.37,0,0,0-.81-2.074A34.615,34.615,0,0,1,12.737,60.5a4.348,4.348,0,0,0,4-5.548A35,35,0,0,1,20.2,51.536a9.256,9.256,0,0,0,6.946,3.779,39.616,39.616,0,0,0,6.43,10.712c3.039,3.5,6.164,5.345,9.037,5.345h0c2.891,0,6.053-1.855,9.144-5.361a39.7,39.7,0,0,0,6.48-10.56,8.453,8.453,0,0,0,4.292-.746,8.7,8.7,0,0,0,3.455-2.623A34.8,34.8,0,0,1,68.866,55a4.306,4.306,0,0,0-.157,1.152A4.357,4.357,0,0,0,72.8,60.5,34.535,34.535,0,0,1,75.2,65.545a4.347,4.347,0,0,0,1.745,6.436,35.364,35.364,0,0,1,.491,5.444q0,.266,0,.531a4.347,4.347,0,0,0-.594,6.337c-.125.667-.27,1.333-.432,1.983A1.978,1.978,0,0,1,75,87.736a2.06,2.06,0,0,1-2.022-.519A34.8,34.8,0,0,0,62.41,80.294a1.17,1.17,0,1,0-.933,2.146,32.481,32.481,0,0,1,9.858,6.449,4.378,4.378,0,0,0,3.076,1.27,4.482,4.482,0,0,0,1.221-.171,4.319,4.319,0,0,0,3.046-3.145c.2-.784.367-1.588.512-2.392a1.846,1.846,0,0,0-.522-1.629,2.007,2.007,0,0,1,.294-3.085ZM15.626,72.446v2.4a1.17,1.17,0,0,0,2.341,0v-2.4a9.358,9.358,0,0,1,13.228-.055.2.2,0,0,1,.057.143v16.9a11.737,11.737,0,0,0-13.157-.087.077.077,0,0,1-.089.006.063.063,0,0,1-.039-.067V80.342a1.17,1.17,0,0,0-2.341,0v8.945a.063.063,0,0,1-.039.067.076.076,0,0,1-.089-.006,11.641,11.641,0,0,0-6.514-1.974A11.538,11.538,0,0,0,2.34,89.434v-16.9a.2.2,0,0,1,.057-.143,9.253,9.253,0,0,1,6.585-2.71,9.178,9.178,0,0,1,6.643,2.765ZM62.947,31.878a4.56,4.56,0,0,0,3.713,2.149,5.428,5.428,0,0,1,5.15,5.892,5.473,5.473,0,0,1-4.693,4.91,5.6,5.6,0,0,0-3.123-3.7,4.342,4.342,0,0,0-3.015,0c-.209-5.907-1.268-10.737-3.155-14.378a17.459,17.459,0,0,0-2.461-3.612A29.27,29.27,0,0,1,62.947,31.878ZM61.593,52.563a5.227,5.227,0,0,1-3.542.455L58,53a1.17,1.17,0,0,0-1.545.646,38.346,38.346,0,0,1-6.449,10.822c-2.6,2.945-5.221,4.567-7.39,4.568h0c-4.346,0-10.189-6.591-13.592-15.333a1.171,1.171,0,0,0-1.214-.739c-1.83.194-5.2-1.141-6.115-3.6a6.3,6.3,0,0,1-.113-4.071,3.373,3.373,0,0,1,1.755-2.207,2.287,2.287,0,0,1,1.813.222A1.17,1.17,0,0,0,26.854,42.3a43.341,43.341,0,0,1,1.153-9.462,1.17,1.17,0,0,0-2.269-.573,42.736,42.736,0,0,0-1.167,8.422,4.121,4.121,0,0,0-2.052.21,5.6,5.6,0,0,0-3.163,3.676c-.033.1-.063.2-.092.306h-.011a5.428,5.428,0,0,1-.385-10.849,4.553,4.553,0,0,0,3.7-2.148,28.587,28.587,0,0,1,7.916-8.967,17.317,17.317,0,0,0-2.64,3.739,1.17,1.17,0,0,0,2.067,1.1c2.631-4.95,6.867-7.358,12.949-7.361h.012c6.071,0,10.284,2.434,12.878,7.439,1.919,3.7,2.9,8.839,2.93,15.267a1.17,1.17,0,0,0,1.9.912,2.724,2.724,0,0,1,2.58-.7,3.373,3.373,0,0,1,1.732,2.225,6.3,6.3,0,0,1-.156,4.069,5.712,5.712,0,0,1-3.136,2.959Z"/>
      <circle id="Ellipse_11619" data-name="Ellipse 11619" cx="2.254" cy="2.254" r="2.254" transform="translate(33.17 47.213) rotate(-89.714)"/>
      <circle id="Ellipse_11620" data-name="Ellipse 11620" cx="2.254" cy="2.254" r="2.254" transform="translate(49.026 47.295) rotate(-89.714)"/>
      <path id="Path_978970" data-name="Path 978970" d="M200.55,146.2a1.17,1.17,0,0,0,1.553-1.751,8.876,8.876,0,0,0-10.518,0,1.17,1.17,0,0,0,1.553,1.751,6.612,6.612,0,0,1,7.412,0Z" transform="translate(-161.401 -105.254)"/>
      <path id="Path_978971" data-name="Path 978971" d="M303.88,144.453a8.876,8.876,0,0,0-10.518,0,1.17,1.17,0,0,0,1.553,1.751,6.613,6.613,0,0,1,7.412,0,1.17,1.17,0,0,0,1.553-1.751Z" transform="translate(-247.321 -105.254)"/>
      <path id="Path_978972" data-name="Path 978972" d="M258.012,279.86a7.906,7.906,0,0,0-4.035,0,2.189,2.189,0,0,0-1.381,2.182c0,1.318,1.022,5.467,3.4,5.467s3.4-4.149,3.4-5.467A2.189,2.189,0,0,0,258.012,279.86Zm-2.017,5.208a6.444,6.444,0,0,1-1.058-3.026c0-.015,0-.028,0-.041a8.974,8.974,0,0,1,2.114,0c0,.012,0,.026,0,.041A6.445,6.445,0,0,1,255.995,285.068Z" transform="translate(-213.239 -220.799)"/>
      <path id="Path_978973" data-name="Path 978973" d="M37.71,393.219a1.738,1.738,0,0,0-1.214-.473,1.763,1.763,0,0,0-1.7,2.08,1.927,1.927,0,0,0,.676,1.062c.44.438,1.822,1.759,2.306,2.221a.244.244,0,0,0,.338,0c.5-.481,1.954-1.885,2.308-2.24a1.871,1.871,0,0,0,.683-1.382,1.744,1.744,0,0,0-2.947-1.266A.329.329,0,0,1,37.71,393.219Z" transform="translate(-29.353 -316.312)"/>
      <path id="Path_978974" data-name="Path 978974" d="M226.273,219.562l-6.676-1.95a3.044,3.044,0,0,0-1-.119c-.948.047-1.91.047-2.858,0a3.046,3.046,0,0,0-1,.119l-6.676,1.95a2,2,0,0,0-1.439,1.677,2.033,2.033,0,0,0,.96,2,9.84,9.84,0,0,0,4.954,1.2,10.283,10.283,0,0,0,2.3-.245,2.671,2.671,0,0,0,4.565-.021,10.2,10.2,0,0,0,2.4.266,9.84,9.84,0,0,0,4.954-1.2,2.033,2.033,0,0,0,.96-2,2,2,0,0,0-1.438-1.677ZM221.8,222.1a5.873,5.873,0,0,1-3.044-.679,2.937,2.937,0,0,0-3.18,0,5.872,5.872,0,0,1-3.044.679,8.6,8.6,0,0,1-3.038-.516l5.894-1.722a.69.69,0,0,1,.232-.028c1.025.051,2.065.051,3.091,0a.689.689,0,0,1,.232.028l5.895,1.722a8.6,8.6,0,0,1-3.038.516Z" transform="translate(-174.408 -168.367)"/>
    </g>
  </g>
</svg>
