<svg xmlns="http://www.w3.org/2000/svg" width="40.676" height="35.409" viewBox="0 0 40.676 35.409">
  <path id="piramide-de-egipto" d="M2.091,40.45a.678.678,0,0,0,.587.339H42a.678.678,0,0,0,.587-1.017L22.925,5.719a.591.591,0,0,0-.083-.1.658.658,0,0,0-1.009,0,.562.562,0,0,0-.083.1L2.091,39.772a.68.68,0,0,0,0,.678Zm9.382-14.216H21.66V33.42H7.324Zm4.936-8.549h1.645v7.193h-5.8ZM23.017,33.42V26.233H33.2l4.149,7.186Zm2.251-15.735v7.193H19.41V17.685Zm1.356,7.193V17.685h1.645l4.153,7.193Zm-3.607-8.549V8.589l4.469,7.74Zm-1.356,0H17.192l4.469-7.74Zm3.607,18.447v4.657H19.41V34.775Zm1.356,4.657V34.775H38.136l2.689,4.657ZM6.542,34.775H18.054v4.657H3.852l2.689-4.657Z" transform="translate(-2.001 -5.38)"/>
</svg>
