<svg xmlns="http://www.w3.org/2000/svg" xmlns:xlink="http://www.w3.org/1999/xlink" width="108" height="108" viewBox="0 0 108 108">
  <defs>
    <filter id="Path_904820" x="0" y="0" width="108" height="108" filterUnits="userSpaceOnUse">
      <feOffset dy="3" input="SourceAlpha"/>
      <feGaussianBlur stdDeviation="3" result="blur"/>
      <feFlood flood-opacity="0.161"/>
      <feComposite operator="in" in2="blur"/>
      <feComposite in="SourceGraphic"/>
    </filter>
  </defs>
  <g id="Group_1144290" data-name="Group 1144290" transform="translate(-306 -3174)">
    <g transform="matrix(1, 0, 0, 1, 306, 3174)" filter="url(#Path_904820)">
      <g id="Path_904820-2" data-name="Path 904820" transform="translate(9 6)" fill="#ecf4fa">
        <path d="M 45 88.5 C 39.12687683105469 88.5 33.43022537231445 87.35007476806641 28.06830024719238 85.08217620849609 C 22.88852500915527 82.89131164550781 18.23629951477051 79.75458526611328 14.2408504486084 75.75914764404297 C 10.24541282653809 71.76370239257812 7.108687400817871 67.11147308349609 4.917825222015381 61.93170166015625 C 2.649924993515015 56.56977462768555 1.5 50.87312316894531 1.5 45 C 1.5 39.12687683105469 2.649924993515015 33.43022537231445 4.917825222015381 28.06830024719238 C 7.108687400817871 22.88852500915527 10.24541282653809 18.23629951477051 14.2408504486084 14.2408504486084 C 18.23629951477051 10.24541282653809 22.88852500915527 7.108687400817871 28.06830024719238 4.917825222015381 C 33.43022537231445 2.649924993515015 39.12687683105469 1.5 45 1.5 C 50.87312316894531 1.5 56.56977462768555 2.649924993515015 61.93170166015625 4.917825222015381 C 67.11147308349609 7.108687400817871 71.76370239257812 10.24541282653809 75.75914764404297 14.2408504486084 C 79.75458526611328 18.23629951477051 82.89131164550781 22.88852500915527 85.08217620849609 28.06830024719238 C 87.35007476806641 33.43022537231445 88.5 39.12687683105469 88.5 45 C 88.5 50.87312316894531 87.35007476806641 56.56977462768555 85.08217620849609 61.93170166015625 C 82.89131164550781 67.11147308349609 79.75458526611328 71.76370239257812 75.75914764404297 75.75914764404297 C 71.76370239257812 79.75458526611328 67.11147308349609 82.89131164550781 61.93170166015625 85.08217620849609 C 56.56977462768555 87.35007476806641 50.87312316894531 88.5 45 88.5 Z" stroke="none"/>
        <path d="M 45 3 C 39.32871246337891 3 33.82865524291992 4.110054016113281 28.65262985229492 6.299339294433594 C 23.65165710449219 8.414573669433594 19.15968322753906 11.44334411621094 15.301513671875 15.301513671875 C 11.44334411621094 19.15968322753906 8.414573669433594 23.65165710449219 6.299339294433594 28.65262985229492 C 4.110054016113281 33.82865524291992 3 39.32871246337891 3 45 C 3 50.67128753662109 4.110054016113281 56.17134475708008 6.299339294433594 61.34737396240234 C 8.414573669433594 66.34834289550781 11.44334411621094 70.84031677246094 15.301513671875 74.698486328125 C 19.15968322753906 78.55665588378906 23.65165710449219 81.58542633056641 28.65262985229492 83.70066070556641 C 33.82865524291992 85.88994598388672 39.32871246337891 87 45 87 C 50.67128753662109 87 56.17134475708008 85.88994598388672 61.34737396240234 83.70066070556641 C 66.34834289550781 81.58542633056641 70.84031677246094 78.55665588378906 74.698486328125 74.698486328125 C 78.55665588378906 70.84031677246094 81.58542633056641 66.34834289550781 83.70066070556641 61.34737396240234 C 85.88994598388672 56.17134475708008 87 50.67128753662109 87 45 C 87 39.32871246337891 85.88994598388672 33.82865524291992 83.70066070556641 28.65262985229492 C 81.58542633056641 23.65165710449219 78.55665588378906 19.15968322753906 74.698486328125 15.301513671875 C 70.84031677246094 11.44334411621094 66.34834289550781 8.414573669433594 61.34737396240234 6.299339294433594 C 56.17134475708008 4.110054016113281 50.67128753662109 3 45 3 M 45 0 C 69.85281372070312 0 90 20.14718627929688 90 45 C 90 69.85281372070312 69.85281372070312 90 45 90 C 20.14718627929688 90 0 69.85281372070312 0 45 C 0 20.14718627929688 20.14718627929688 0 45 0 Z" stroke="none" fill="#2a5673"/>
      </g>
    </g>
    <g id="Group_1144289" data-name="Group 1144289" transform="translate(322 3187)">
      <g id="Group_1144287" data-name="Group 1144287" transform="translate(8.968 8.968)">
        <g id="Group_1144286" data-name="Group 1144286" transform="translate(0)">
          <path id="Path_979735" data-name="Path 979735" d="M74.065,106.9v30H16v-30a2.9,2.9,0,0,1,2.9-2.9H71.161a2.9,2.9,0,0,1,2.9,2.9Z" transform="translate(-16 -93.355)" fill="#83d8f4"/>
          <path id="Path_979736" data-name="Path 979736" d="M74.065,376v2.9a2.9,2.9,0,0,1-2.9,2.9H18.9a2.9,2.9,0,0,1-2.9-2.9V376Z" transform="translate(-16 -332.452)" fill="#e0e0e2"/>
          <path id="Path_979737" data-name="Path 979737" d="M213.548,429.806H200L201.935,424h9.677Z" transform="translate(-177.742 -374.645)" fill="#57565c"/>
          <path id="Path_979738" data-name="Path 979738" d="M168,472h21.29v2.9H168Z" transform="translate(-149.613 -416.839)" fill="#e0e0e2"/>
          <path id="Path_979739" data-name="Path 979739" d="M195.355,80V91.613a25.161,25.161,0,0,1-19.355,0V80" transform="translate(-156.645 -72.258)" fill="#2d2d30"/>
          <ellipse id="Ellipse_11558" data-name="Ellipse 11558" cx="2.165" cy="1.805" rx="2.165" ry="1.805" transform="translate(39.453 21.499)" fill="#ffda44"/>
          <path id="Path_979740" data-name="Path 979740" d="M150.516,27.613,136,21.806,150.516,16l14.516,5.806Z" transform="translate(-121.484 -16)" fill="#3e3d42"/>
        </g>
        <path id="Path_979741" data-name="Path 979741" d="M80,248H99.355v11.613H80Z" transform="translate(-72.258 -219.936)" fill="#ffda44"/>
      </g>
      <g id="Group_1144288" data-name="Group 1144288" transform="translate(8 8)">
        <path id="Path_979742" data-name="Path 979742" d="M64.129,18.645H51.548V16.2l1.327-.531a.968.968,0,0,0,0-1.8L38.359,8.069a.971.971,0,0,0-.719,0L23.125,13.875a.968.968,0,0,0,0,1.8l4.23,1.692v1.28H11.871A3.875,3.875,0,0,0,8,22.516v32.9a3.875,3.875,0,0,0,3.871,3.871H31.819l-1.291,3.871H27.355a.968.968,0,0,0-.968.968v2.9a.968.968,0,0,0,.968.968h21.29a.968.968,0,0,0,.968-.968v-2.9a.968.968,0,0,0-.968-.968H45.472L44.181,59.29H64.129A3.875,3.875,0,0,0,68,55.419v-32.9A3.875,3.875,0,0,0,64.129,18.645ZM51.548,32.194a.968.968,0,1,1-.968-.968A.968.968,0,0,1,51.548,32.194ZM26.09,14.774,38,10.011l11.91,4.764L38,19.538Zm23.523,2.2v1.667h-.968v-1.28Zm-2.9,1.161v9.52a24.231,24.231,0,0,1-17.419,0V18.14l8.35,3.34a.971.971,0,0,0,.719,0ZM47.677,65.1v.968H28.323V65.1ZM32.569,63.161l1.291-3.871h8.281l1.291,3.871Zm33.5-7.742a1.938,1.938,0,0,1-1.935,1.935H11.871a1.938,1.938,0,0,1-1.935-1.935V53.484H66.065Zm0-3.871H9.935V22.516a1.938,1.938,0,0,1,1.935-1.935H27.355v7.742a.968.968,0,0,0,.608.9,26.218,26.218,0,0,0,20.073,0,.968.968,0,0,0,.608-.9V20.581h.968v8.71a1.022,1.022,0,0,0,.015.162,2.9,2.9,0,1,0,1.906,0,1.023,1.023,0,0,0,.015-.162v-8.71H64.129a1.938,1.938,0,0,1,1.935,1.935Z" transform="translate(-8 -8)"/>
        <path id="Path_979743" data-name="Path 979743" d="M46.774,392H40.968a.968.968,0,0,0,0,1.935h5.806a.968.968,0,1,0,0-1.935Z" transform="translate(-36.129 -345.548)"/>
        <path id="Path_979744" data-name="Path 979744" d="M113.935,392h-.968a.968.968,0,1,0,0,1.935h.968a.968.968,0,1,0,0-1.935Z" transform="translate(-99.419 -345.548)"/>
        <path id="Path_979745" data-name="Path 979745" d="M72.968,253.548H92.323a.968.968,0,0,0,.968-.968V240.968a.968.968,0,0,0-.968-.968H72.968a.968.968,0,0,0-.968.968v11.613A.968.968,0,0,0,72.968,253.548Zm.968-11.613H91.355v9.677H73.935Z" transform="translate(-64.258 -211.936)"/>
        <path id="Path_979746" data-name="Path 979746" d="M72.968,217.935H80.71a.968.968,0,1,0,0-1.935H72.968a.968.968,0,1,0,0,1.935Z" transform="translate(-64.258 -190.839)"/>
        <path id="Path_979747" data-name="Path 979747" d="M72.968,193.935h2.9a.968.968,0,1,0,0-1.935h-2.9a.968.968,0,1,0,0,1.935Z" transform="translate(-64.258 -169.742)"/>
        <path id="Path_979748" data-name="Path 979748" d="M264.968,241.936h19.355a.968.968,0,0,0,0-1.935H264.968a.968.968,0,1,0,0,1.935Z" transform="translate(-233.032 -211.936)"/>
        <path id="Path_979749" data-name="Path 979749" d="M264.968,265.935h19.355a.968.968,0,0,0,0-1.935H264.968a.968.968,0,1,0,0,1.935Z" transform="translate(-233.032 -233.032)"/>
        <path id="Path_979750" data-name="Path 979750" d="M264.968,289.935h15.363a.968.968,0,0,0,0-1.935H264.968a.968.968,0,1,0,0,1.935Z" transform="translate(-233.032 -254.129)"/>
        <path id="Path_979751" data-name="Path 979751" d="M417.936,288h-.968a.968.968,0,1,0,0,1.935h.968a.968.968,0,1,0,0-1.935Z" transform="translate(-366.645 -254.129)"/>
        <path id="Path_979752" data-name="Path 979752" d="M264.968,313.935h19.355a.968.968,0,0,0,0-1.935H264.968a.968.968,0,1,0,0,1.935Z" transform="translate(-233.032 -275.226)"/>
        <path id="Path_979753" data-name="Path 979753" d="M264.968,337.936h15.363a.968.968,0,0,0,0-1.936H264.968a.968.968,0,1,0,0,1.936Z" transform="translate(-233.032 -296.323)"/>
        <path id="Path_979754" data-name="Path 979754" d="M417.936,336h-.968a.968.968,0,1,0,0,1.936h.968a.968.968,0,1,0,0-1.936Z" transform="translate(-366.645 -296.323)"/>
      </g>
    </g>
  </g>
</svg>
