<svg xmlns="http://www.w3.org/2000/svg" xmlns:xlink="http://www.w3.org/1999/xlink" width="108" height="108" viewBox="0 0 108 108">
  <defs>
    <filter id="Fondo" x="0" y="0" width="108" height="108" filterUnits="userSpaceOnUse">
      <feOffset dy="3" input="SourceAlpha"/>
      <feGaussianBlur stdDeviation="3" result="blur"/>
      <feFlood flood-opacity="0.161"/>
      <feComposite operator="in" in2="blur"/>
      <feComposite in="SourceGraphic"/>
    </filter>
  </defs>
  <g id="Group_1144250" data-name="Group 1144250" transform="translate(-273 -673)">
    <g transform="matrix(1, 0, 0, 1, 273, 673)" filter="url(#Fondo)">
      <g id="Fondo-2" data-name="Fondo" transform="translate(9 6)" fill="#fffbe7" stroke="#bca724" stroke-width="3">
        <circle cx="45" cy="45" r="45" stroke="none"/>
        <circle cx="45" cy="45" r="43.5" fill="none"/>
      </g>
    </g>
    <g id="Group_1144249" data-name="Group 1144249" transform="translate(291.464 691.848)">
      <circle id="Ellipse_11553" data-name="Ellipse 11553" cx="26.809" cy="26.809" r="26.809" transform="translate(13.574 0)" fill="#e1e6e9"/>
      <path id="Path_979661" data-name="Path 979661" d="M308.552,73.031a4,4,0,0,0-3.561-4.056,4.2,4.2,0,0,0-1.88-7.815h-.2a2.926,2.926,0,0,0,.2-.989,4.078,4.078,0,0,0-3.957-4.155,3.257,3.257,0,0,0-1.88.594,3.96,3.96,0,1,0-7.914.3V88.662a3.959,3.959,0,1,0,7.914.2,3.65,3.65,0,0,0,2.374.989,4.087,4.087,0,0,0,3.462-6.035c.2,0,.3.1.495.1a4.078,4.078,0,0,0,3.957-4.155,4.34,4.34,0,0,0-1.286-3.067A3.963,3.963,0,0,0,308.552,73.031Z" transform="translate(-249.075 -46.024)" fill="#2ea2db"/>
      <g id="Group_1144246" data-name="Group 1144246" transform="translate(39.295 5.837)">
        <path id="Path_979662" data-name="Path 979662" d="M286.546,87.814A5.006,5.006,0,0,1,281.6,82.67V50.914a5.07,5.07,0,0,1,4.946-5.144,4.959,4.959,0,0,1,4.65,3.463,4.775,4.775,0,0,1,6.134,4.946v.1a5.114,5.114,0,0,1,3.957,5.045,4.918,4.918,0,0,1-1.187,3.265,5.073,5.073,0,0,1,2.572,4.452A5.165,5.165,0,0,1,300.99,70.9a5.409,5.409,0,0,1,.791,2.869,5.038,5.038,0,0,1-4.056,5.045,2.739,2.739,0,0,1,.1.89,5.07,5.07,0,0,1-4.946,5.144,3.881,3.881,0,0,1-1.781-.4A4.874,4.874,0,0,1,286.546,87.814Zm0-40.165a3.086,3.086,0,0,0-2.968,3.166V82.571a3.088,3.088,0,0,0,2.968,3.166,3.042,3.042,0,0,0,2.968-2.968,1.137,1.137,0,0,1,.594-.89.91.91,0,0,1,.989.1,2.681,2.681,0,0,0,3.858-.2,3.134,3.134,0,0,0,.89-2.275,3.038,3.038,0,0,0-.4-1.484.91.91,0,0,1,.1-.989.861.861,0,0,1,.89-.4.747.747,0,0,1,.4.1h0a3.025,3.025,0,0,0,2.968-3.166,2.864,2.864,0,0,0-.989-2.275,1.863,1.863,0,0,1-.2-.791.744.744,0,0,1,.495-.692,3.381,3.381,0,0,0,1.682-2.77,3.2,3.2,0,0,0-2.671-3.166,1.052,1.052,0,0,1-.89-.791.994.994,0,0,1,.495-1.088,3.158,3.158,0,0,0,1.583-2.77,3.009,3.009,0,0,0-2.869-3.166h-.2a.9.9,0,0,1-.791-.4.949.949,0,0,1-.2-.89l.1-.3a1.075,1.075,0,0,0,.1-.495,3.088,3.088,0,0,0-2.968-3.166,2.706,2.706,0,0,0-1.385.4.9.9,0,0,1-.989,0,1.009,1.009,0,0,1-.495-.791A3.356,3.356,0,0,0,286.546,47.65Z" transform="translate(-281.6 -45.77)" fill="#193651"/>
        <path id="Path_979663" data-name="Path 979663" d="M345.425,118.451h0a.989.989,0,1,1,0-1.979h0a4.388,4.388,0,0,0,3.067-1.385,4.608,4.608,0,0,0,1.385-3.166.989.989,0,0,1,1.979,0,6.56,6.56,0,0,1-1.979,4.551A6.006,6.006,0,0,1,345.425,118.451Z" transform="translate(-336.423 -102.622)" fill="#193651"/>
        <path id="Path_979664" data-name="Path 979664" d="M317.576,304.5a.935.935,0,0,1-.989-.989,3.1,3.1,0,0,0-2.968-2.869.989.989,0,1,1,0-1.979,5.077,5.077,0,0,1,4.946,4.847A.991.991,0,0,1,317.576,304.5Z" transform="translate(-308.672 -266.415)" fill="#193651"/>
        <path id="Path_979665" data-name="Path 979665" d="M367.146,240.527h0a.935.935,0,0,1-.989-.989c0-3.364,3.858-6.035,7.222-6.035h0a.989.989,0,0,1,0,1.979h0c-2.374,0-5.243,1.88-5.243,4.056A.991.991,0,0,1,367.146,240.527Z" transform="translate(-355.374 -209.562)" fill="#193651"/>
      </g>
      <path id="Path_979666" data-name="Path 979666" d="M139.636,73.313A4,4,0,0,0,143.2,77.37a4.2,4.2,0,0,0,1.88,7.815h.2a2.926,2.926,0,0,0-.2.989,4.078,4.078,0,0,0,3.957,4.155,3.257,3.257,0,0,0,1.88-.594,3.96,3.96,0,1,0,7.914-.3V57.683a3.959,3.959,0,1,0-7.914-.2,3.65,3.65,0,0,0-2.374-.989,4.087,4.087,0,0,0-3.462,6.035c-.2,0-.3-.1-.495-.1a4.078,4.078,0,0,0-3.957,4.155,4.34,4.34,0,0,0,1.286,3.067A4.07,4.07,0,0,0,139.636,73.313Z" transform="translate(-118.445 -46.702)" fill="#f16051"/>
      <g id="Group_1144247" data-name="Group 1144247" transform="translate(20.301 5.837)">
        <path id="Path_979667" data-name="Path 979667" d="M148.779,87.814a4.96,4.96,0,0,1-4.65-3.462A4.775,4.775,0,0,1,138,79.406v-.1a5.115,5.115,0,0,1-3.957-5.045A4.918,4.918,0,0,1,135.226,71a5.073,5.073,0,0,1-2.572-4.452,5.165,5.165,0,0,1,1.682-3.858,5.409,5.409,0,0,1-.791-2.869,5.038,5.038,0,0,1,4.056-5.045,2.739,2.739,0,0,1-.1-.89,5.07,5.07,0,0,1,4.946-5.144,3.881,3.881,0,0,1,1.781.4,4.9,4.9,0,0,1,4.65-3.364,5.006,5.006,0,0,1,4.946,5.144V82.67A5.153,5.153,0,0,1,148.779,87.814Zm-3.957-5.837a.892.892,0,0,1,.495.1,1.009,1.009,0,0,1,.495.791,2.954,2.954,0,0,0,2.968,2.869h0a3.086,3.086,0,0,0,2.968-3.166V50.914a3.088,3.088,0,0,0-2.968-3.166,3.042,3.042,0,0,0-2.968,2.968,1.137,1.137,0,0,1-.594.89.91.91,0,0,1-.989-.1,2.714,2.714,0,0,0-1.781-.692,3.086,3.086,0,0,0-2.968,3.166,3.037,3.037,0,0,0,.4,1.484.91.91,0,0,1-.1.989.861.861,0,0,1-.89.4.747.747,0,0,1-.4-.1,2.847,2.847,0,0,0-2.077.89,3.134,3.134,0,0,0-.89,2.275,2.864,2.864,0,0,0,.989,2.275,1.123,1.123,0,0,1,.3.791.744.744,0,0,1-.495.692,3.381,3.381,0,0,0-1.682,2.77,3.2,3.2,0,0,0,2.671,3.166,1.052,1.052,0,0,1,.89.791.994.994,0,0,1-.495,1.088,3.059,3.059,0,0,0-1.682,2.77,3.009,3.009,0,0,0,2.869,3.166h.2a.9.9,0,0,1,.791.4.949.949,0,0,1,.2.89l-.1.3v.4a3.088,3.088,0,0,0,2.968,3.166,2.706,2.706,0,0,0,1.385-.4A1.679,1.679,0,0,1,144.822,81.978Z" transform="translate(-132.654 -45.77)" fill="#193651"/>
        <path id="Path_979668" data-name="Path 979668" d="M225.938,81.861h0a4.989,4.989,0,0,1-4.847-4.847.989.989,0,1,1,1.979,0,3.1,3.1,0,0,0,2.968,2.869.935.935,0,0,1,.989.989A1.259,1.259,0,0,1,225.938,81.861Z" transform="translate(-209.813 -72.166)" fill="#193651"/>
        <path id="Path_979669" data-name="Path 979669" d="M149.934,139.677a.989.989,0,0,1,0-1.979h0a6.039,6.039,0,0,0,3.561-1.286,3.959,3.959,0,0,0,1.682-2.77.935.935,0,0,1,.989-.989h0a.935.935,0,0,1,.989.989A5.59,5.59,0,0,1,154.683,138,7.946,7.946,0,0,1,149.934,139.677Z" transform="translate(-146.868 -121.573)" fill="#193651"/>
        <path id="Path_979670" data-name="Path 979670" d="M283.364,221.034a.935.935,0,0,1-.989-.989,5.953,5.953,0,0,1,5.936-5.936.989.989,0,1,1,0,1.979,3.969,3.969,0,0,0-3.957,3.957A.935.935,0,0,1,283.364,221.034Z" transform="translate(-263.282 -192.642)" fill="#193651"/>
        <path id="Path_979671" data-name="Path 979671" d="M243.025,150.44a.935.935,0,0,1-.989-.989,5.953,5.953,0,0,1,5.936-5.936.989.989,0,1,1,0,1.979,3.969,3.969,0,0,0-3.957,3.957A.935.935,0,0,1,243.025,150.44Z" transform="translate(-228.087 -131.05)" fill="#193651"/>
      </g>
      <path id="Path_979672" data-name="Path 979672" d="M67.907,177.513a13.941,13.941,0,0,0-14.74-13.949,14.034,14.034,0,0,0-7.321,25.523,4.27,4.27,0,0,1,1.781,3.364v9.5H60.19v-9.5a4.17,4.17,0,0,1,1.682-3.364A14.416,14.416,0,0,0,67.907,177.513Z" transform="translate(-31.381 -142.691)" fill="#fff"/>
      <path id="Path_979673" data-name="Path 979673" d="M53.311,195.4H40.846a.935.935,0,0,1-.989-.989v-9.5a2.984,2.984,0,0,0-1.385-2.572,14.967,14.967,0,1,1,17.213.1,3.14,3.14,0,0,0-1.286,2.572v9.5A1.176,1.176,0,0,1,53.311,195.4Zm-11.476-1.979H52.421v-8.508a4.9,4.9,0,0,1,2.176-4.155,13.4,13.4,0,0,0,5.54-10.684,12.981,12.981,0,0,0-13.652-12.96,13.138,13.138,0,0,0-12.366,11.673,12.819,12.819,0,0,0,5.54,11.97,5.206,5.206,0,0,1,2.176,4.254S41.836,193.424,41.836,193.424Z" transform="translate(-24.601 -135.255)" fill="#193651"/>
      <path id="Path_979674" data-name="Path 979674" d="M77.586,190.061h-.495a10.685,10.685,0,0,0-9.992,9.5,10.465,10.465,0,0,0,4.452,9.695,7.476,7.476,0,0,1,3.265,6.232v2.176h5.54v-2.177a7.64,7.64,0,0,1,3.166-6.232,10.526,10.526,0,0,0-5.935-19.192Z" transform="translate(-55.109 -165.824)" fill="#fdbf5e"/>
      <rect id="Rectangle_405629" data-name="Rectangle 405629" width="1.979" height="2.077" transform="translate(63.038 25.82)" fill="#193651"/>
      <rect id="Rectangle_405630" data-name="Rectangle 405630" width="1.979" height="2.077" transform="translate(62.254 15.396) rotate(150.007)" fill="#193651"/>
      <rect id="Rectangle_405631" data-name="Rectangle 405631" width="1.978" height="2.077" transform="matrix(-0.5, 0.866, -0.866, -0.5, 53.577, 5.973)" fill="#193651"/>
      <rect id="Rectangle_405632" data-name="Rectangle 405632" width="2.077" height="1.979" transform="translate(39.295 49.563)" fill="#193651"/>
      <rect id="Rectangle_405633" data-name="Rectangle 405633" width="2.077" height="1.979" transform="translate(39.295 2.077)" fill="#193651"/>
      <rect id="Rectangle_405634" data-name="Rectangle 405634" width="2.077" height="1.979" transform="translate(53.603 47.719) rotate(150.007)" fill="#193651"/>
      <rect id="Rectangle_405635" data-name="Rectangle 405635" width="2.077" height="1.979" transform="translate(29.837 6.577) rotate(150.007)" fill="#193651"/>
      <rect id="Rectangle_405636" data-name="Rectangle 405636" width="2.077" height="1.978" transform="matrix(-0.5, 0.866, -0.866, -0.5, 62.259, 38.259)" fill="#193651"/>
      <rect id="Rectangle_405637" data-name="Rectangle 405637" width="2.077" height="1.979" transform="translate(21.125 14.561) rotate(119.993)" fill="#193651"/>
      <rect id="Rectangle_405638" data-name="Rectangle 405638" width="1.979" height="2.077" transform="translate(3.879 33.042)" fill="#193651"/>
      <rect id="Rectangle_405639" data-name="Rectangle 405639" width="1.979" height="2.077" transform="matrix(-0.866, 0.5, -0.5, -0.866, 8.599, 43.19)" fill="#193651"/>
      <rect id="Rectangle_405640" data-name="Rectangle 405640" width="2.077" height="1.979" transform="translate(15.021 19.158) rotate(150.007)" fill="#193651"/>
      <rect id="Rectangle_405641" data-name="Rectangle 405641" width="2.077" height="1.979" transform="translate(8.578 24.861) rotate(119.993)" fill="#193651"/>
      <path id="Path_979675" data-name="Path 979675" d="M124.121,463.9v.89a3.265,3.265,0,0,0,6.529,0v-.89Z" transform="translate(-104.908 -404.744)" fill="#fff"/>
      <path id="Path_979676" data-name="Path 979676" d="M123.882,456.145h-6.529a.935.935,0,0,0-.989.989v.89a4.254,4.254,0,1,0,8.508,0v-.89A.991.991,0,0,0,123.882,456.145Zm-3.265,4.155a2.354,2.354,0,0,1-2.275-2.176h4.551A2.354,2.354,0,0,1,120.617,460.3Z" transform="translate(-98.14 -397.975)" fill="#193651"/>
      <path id="Path_979677" data-name="Path 979677" d="M170.527,267.41h0a2.319,2.319,0,0,1-1.682,3.858h-2.077V269.19a2.249,2.249,0,0,1,3.759-1.781Z" transform="translate(-142.114 -232.785)" fill="#fff"/>
      <path id="Path_979678" data-name="Path 979678" d="M161.321,265.532h-2.077a.935.935,0,0,1-.989-.989v-2.078a3.336,3.336,0,0,1,3.364-3.364,3.069,3.069,0,0,1,2.176.89l.1.1a3.139,3.139,0,0,1,.594,3.463A3.525,3.525,0,0,1,161.321,265.532Zm-1.088-1.979h1.088a1.449,1.449,0,0,0,1.286-.89,1.1,1.1,0,0,0-.2-1.286,1.022,1.022,0,0,0-.791-.4,1.35,1.35,0,0,0-1.385,1.385v1.187Z" transform="translate(-134.688 -226.06)" fill="#193651"/>
      <path id="Path_979679" data-name="Path 979679" d="M99.052,267.41h0a2.319,2.319,0,0,0,1.682,3.858h2.077V269.19a2.268,2.268,0,0,0-3.759-1.781Z" transform="translate(-82.51 -232.785)" fill="#fff"/>
      <g id="Group_1144248" data-name="Group 1144248" transform="translate(13.277 33.042)">
        <path id="Path_979680" data-name="Path 979680" d="M95.647,265.532H93.57a3.314,3.314,0,0,1-3.067-2.077,3.012,3.012,0,0,1,.594-3.364l.1-.1a3.069,3.069,0,0,1,2.176-.89,3.336,3.336,0,0,1,3.364,3.364v2.078A1.163,1.163,0,0,1,95.647,265.532Zm-2.275-4.452a1.316,1.316,0,0,0-.791.3,1.412,1.412,0,0,0-.3,1.286,1.449,1.449,0,0,0,1.286.89h1.088v-1.088A1.331,1.331,0,0,0,93.372,261.081Z" transform="translate(-88.623 -259.102)" fill="#193651"/>
        <path id="Path_979681" data-name="Path 979681" d="M130.139,309.346a.935.935,0,0,1-.989-.989V295.991h-2.275v12.366a.989.989,0,0,1-1.979,0V295a.935.935,0,0,1,.989-.989h4.254a.935.935,0,0,1,.989.989v13.355A.991.991,0,0,1,130.139,309.346Z" transform="translate(-118.861 -289.56)" fill="#193651"/>
        <path id="Path_979682" data-name="Path 979682" d="M94.887,400.718H78.564a.989.989,0,1,1,0-1.979H94.887a.935.935,0,0,1,.989.989A.991.991,0,0,1,94.887,400.718Z" transform="translate(-77.575 -380.932)" fill="#193651"/>
        <path id="Path_979683" data-name="Path 979683" d="M94.887,429.421H78.564a.989.989,0,1,1,0-1.979H94.887a.989.989,0,1,1,0,1.979Z" transform="translate(-77.575 -405.975)" fill="#193651"/>
      </g>
    </g>
  </g>
</svg>
