<svg xmlns="http://www.w3.org/2000/svg" xmlns:xlink="http://www.w3.org/1999/xlink" width="108" height="108" viewBox="0 0 108 108">
  <defs>
    <filter id="Path_904820" x="0" y="0" width="108" height="108" filterUnits="userSpaceOnUse">
      <feOffset dy="3" input="SourceAlpha"/>
      <feGaussianBlur stdDeviation="3" result="blur"/>
      <feFlood flood-opacity="0.161"/>
      <feComposite operator="in" in2="blur"/>
      <feComposite in="SourceGraphic"/>
    </filter>
  </defs>
  <g id="Group_1144303" data-name="Group 1144303" transform="translate(-201 -1256)">
    <g transform="matrix(1, 0, 0, 1, 201, 1256)" filter="url(#Path_904820)">
      <g id="Path_904820-2" data-name="Path 904820" transform="translate(9 6)" fill="#ecf4fa">
        <path d="M 45 88.5 C 39.12687683105469 88.5 33.43022537231445 87.35007476806641 28.06830024719238 85.08217620849609 C 22.88852500915527 82.89131164550781 18.23629951477051 79.75458526611328 14.2408504486084 75.75914764404297 C 10.24541282653809 71.76370239257812 7.108687400817871 67.11147308349609 4.917825222015381 61.93170166015625 C 2.649924993515015 56.56977462768555 1.5 50.87312316894531 1.5 45 C 1.5 39.12687683105469 2.649924993515015 33.43022537231445 4.917825222015381 28.06830024719238 C 7.108687400817871 22.88852500915527 10.24541282653809 18.23629951477051 14.2408504486084 14.2408504486084 C 18.23629951477051 10.24541282653809 22.88852500915527 7.108687400817871 28.06830024719238 4.917825222015381 C 33.43022537231445 2.649924993515015 39.12687683105469 1.5 45 1.5 C 50.87312316894531 1.5 56.56977462768555 2.649924993515015 61.93170166015625 4.917825222015381 C 67.11147308349609 7.108687400817871 71.76370239257812 10.24541282653809 75.75914764404297 14.2408504486084 C 79.75458526611328 18.23629951477051 82.89131164550781 22.88852500915527 85.08217620849609 28.06830024719238 C 87.35007476806641 33.43022537231445 88.5 39.12687683105469 88.5 45 C 88.5 50.87312316894531 87.35007476806641 56.56977462768555 85.08217620849609 61.93170166015625 C 82.89131164550781 67.11147308349609 79.75458526611328 71.76370239257812 75.75914764404297 75.75914764404297 C 71.76370239257812 79.75458526611328 67.11147308349609 82.89131164550781 61.93170166015625 85.08217620849609 C 56.56977462768555 87.35007476806641 50.87312316894531 88.5 45 88.5 Z" stroke="none"/>
        <path d="M 45 3 C 39.32871246337891 3 33.82865524291992 4.110054016113281 28.65262985229492 6.299339294433594 C 23.65165710449219 8.414573669433594 19.15968322753906 11.44334411621094 15.301513671875 15.301513671875 C 11.44334411621094 19.15968322753906 8.414573669433594 23.65165710449219 6.299339294433594 28.65262985229492 C 4.110054016113281 33.82865524291992 3 39.32871246337891 3 45 C 3 50.67128753662109 4.110054016113281 56.17134475708008 6.299339294433594 61.34737396240234 C 8.414573669433594 66.34834289550781 11.44334411621094 70.84031677246094 15.301513671875 74.698486328125 C 19.15968322753906 78.55665588378906 23.65165710449219 81.58542633056641 28.65262985229492 83.70066070556641 C 33.82865524291992 85.88994598388672 39.32871246337891 87 45 87 C 50.67128753662109 87 56.17134475708008 85.88994598388672 61.34737396240234 83.70066070556641 C 66.34834289550781 81.58542633056641 70.84031677246094 78.55665588378906 74.698486328125 74.698486328125 C 78.55665588378906 70.84031677246094 81.58542633056641 66.34834289550781 83.70066070556641 61.34737396240234 C 85.88994598388672 56.17134475708008 87 50.67128753662109 87 45 C 87 39.32871246337891 85.88994598388672 33.82865524291992 83.70066070556641 28.65262985229492 C 81.58542633056641 23.65165710449219 78.55665588378906 19.15968322753906 74.698486328125 15.301513671875 C 70.84031677246094 11.44334411621094 66.34834289550781 8.414573669433594 61.34737396240234 6.299339294433594 C 56.17134475708008 4.110054016113281 50.67128753662109 3 45 3 M 45 0 C 69.85281372070312 0 90 20.14718627929688 90 45 C 90 69.85281372070312 69.85281372070312 90 45 90 C 20.14718627929688 90 0 69.85281372070312 0 45 C 0 20.14718627929688 20.14718627929688 0 45 0 Z" stroke="none" fill="#2a5673"/>
      </g>
    </g>
    <g id="Group_1144302" data-name="Group 1144302" transform="translate(167.824 1278.469)">
      <g id="Group_1144300" data-name="Group 1144300" transform="translate(65.017 0.901)">
        <g id="Group_1144293" data-name="Group 1144293" transform="translate(0 0.001)">
          <g id="Group_1144292" data-name="Group 1144292">
            <g id="Group_1144291" data-name="Group 1144291">
              <path id="Path_979755" data-name="Path 979755" d="M196.714,72.03,207.2,63.817l1.637-14.3-12.122-6.673-4.921,6.763A8.322,8.322,0,0,1,190.84,64.9,11.814,11.814,0,0,0,183,76.03v2.149a5.068,5.068,0,0,0,5.067,5.068h7.411Z" transform="translate(-169.617 -38.596)" fill="#fe7d43"/>
              <path id="Path_979756" data-name="Path 979756" d="M91.3,7.54A18.443,18.443,0,0,0,71.615,25.953a5.068,5.068,0,0,0,5.067,5.067h7.411" transform="translate(-71.615 -7.5)" fill="#fe7d43"/>
            </g>
            <path id="Path_979757" data-name="Path 979757" d="M195.479,419.815h-7.411A5.068,5.068,0,0,0,183,424.882v.042a5.068,5.068,0,0,0,5.067,5.067h6.51" transform="translate(-169.614 -370.264)" fill="#fe7d43"/>
          </g>
          <path id="Path_979758" data-name="Path 979758" d="M242.832,7.5h-7.411" transform="translate(-215.735 -7.5)" fill="#fe7d43"/>
        </g>
        <g id="Group_1144299" data-name="Group 1144299" transform="translate(7.411)">
          <g id="Group_1144298" data-name="Group 1144298">
            <g id="Group_1144295" data-name="Group 1144295" transform="translate(0 0.001)">
              <g id="Group_1144294" data-name="Group 1144294">
                <path id="Path_979759" data-name="Path 979759" d="M151.736,52.15a5.068,5.068,0,0,1-5.067-5.067V44.933A11.81,11.81,0,0,1,154.506,33.8,8.321,8.321,0,1,0,143.5,24.786a8.464,8.464,0,0,0-.081,1.167,5.067,5.067,0,0,1-10.135,0,18.454,18.454,0,1,1,24.6,17.4,1.66,1.66,0,0,0-1.081,1.578v2.149a5.068,5.068,0,0,1-5.068,5.067Z" transform="translate(-133.282 -7.5)" fill="#ffd15b"/>
              </g>
              <path id="Path_979760" data-name="Path 979760" d="M249.735,429.992a5.068,5.068,0,0,1-5.067-5.067v-.042a5.067,5.067,0,1,1,10.135,0v.042A5.067,5.067,0,0,1,249.735,429.992Z" transform="translate(-231.282 -370.264)" fill="#ffd15b"/>
            </g>
            <g id="Group_1144297" data-name="Group 1144297" transform="translate(0)">
              <g id="Group_1144296" data-name="Group 1144296">
                <path id="Path_979761" data-name="Path 979761" d="M137.94,23.382a18.471,18.471,0,0,0-.177,2.567,5.063,5.063,0,0,0,2.827,4.546,5.068,5.068,0,0,1-7.307-4.546A18.457,18.457,0,0,1,152.97,7.535q.516.034,1.025.1A18.539,18.539,0,0,0,137.94,23.382Z" transform="translate(-133.283 -7.495)" fill="#ffc344"/>
                <path id="Path_979762" data-name="Path 979762" d="M256.993,108a11.814,11.814,0,0,0-7.839,11.134v2.149a5.066,5.066,0,0,0,2.83,4.546,5.068,5.068,0,0,1-7.307-4.546v-2.149A11.811,11.811,0,0,1,252.516,108,8.322,8.322,0,0,0,252,92.144,8.316,8.316,0,0,1,256.993,108Z" transform="translate(-231.29 -81.699)" fill="#ffc344"/>
              </g>
              <path id="Path_979763" data-name="Path 979763" d="M251.984,429.461a5.068,5.068,0,0,1-7.307-4.546v-.043a5.068,5.068,0,0,1,7.307-4.546,5.071,5.071,0,0,0-2.83,4.546v.043A5.066,5.066,0,0,0,251.984,429.461Z" transform="translate(-231.29 -370.254)" fill="#ffc344"/>
            </g>
          </g>
        </g>
      </g>
      <g id="Group_1144301" data-name="Group 1144301" transform="translate(64.116 0)">
        <path id="Path_979764" data-name="Path 979764" d="M110.185,17.919A19.406,19.406,0,0,0,92.173.042C91.729.012,83.465,0,83.465,0h-.023a19.3,19.3,0,0,0-9.2,2.367,19.512,19.512,0,0,0-7.549,7.353.9.9,0,1,0,1.56.9A17.711,17.711,0,0,1,75.107,3.95a17.514,17.514,0,0,1,7.634-2.13A19.291,19.291,0,0,0,71.527,19.354a5.948,5.948,0,0,0,1.7,4.167H70.084a4.171,4.171,0,0,1-4.165-4.167,17.77,17.77,0,0,1,.169-2.442,17.454,17.454,0,0,1,.576-2.622.9.9,0,0,0-1.726-.521,19.271,19.271,0,0,0-.636,2.894,19.579,19.579,0,0,0-.186,2.691,5.975,5.975,0,0,0,5.968,5.969H77.5a5.975,5.975,0,0,0,5.964-5.969,7.567,7.567,0,0,1,.072-1.042,7.4,7.4,0,0,1,3.655-5.377A7.42,7.42,0,0,1,85.94,26.351,12.717,12.717,0,0,0,77.5,38.335v2.149a5.975,5.975,0,0,0,5.968,5.969h7.412a5.976,5.976,0,0,0,5.969-5.969V38.335a.758.758,0,0,1,.48-.729,19.424,19.424,0,0,0,12.854-19.687ZM79.3,40.484V38.335A10.911,10.911,0,0,1,86.541,28.05,9.219,9.219,0,0,0,89.2,12.136a7.415,7.415,0,0,1,4.147,14.215,12.713,12.713,0,0,0-8.439,11.983v2.149a5.947,5.947,0,0,0,1.7,4.166H83.47A4.17,4.17,0,0,1,79.3,40.484ZM96.73,35.906a2.563,2.563,0,0,0-1.682,2.428v2.149a4.166,4.166,0,1,1-8.332,0V38.335a10.908,10.908,0,0,1,7.237-10.284,9.222,9.222,0,0,0-2.441-17.9q-.307-.02-.61-.02a9.26,9.26,0,0,0-9.15,7.928,9.386,9.386,0,0,0-.089,1.291,4.166,4.166,0,1,1-8.332,0,17.553,17.553,0,1,1,23.4,16.552Z" transform="translate(-64.116 0)"/>
        <path id="Path_979765" data-name="Path 979765" d="M188.881,412.315H181.47a5.976,5.976,0,0,0-5.969,5.969v.042a5.976,5.976,0,0,0,5.969,5.969s7.568,0,7.645,0a.9.9,0,1,0-.065-1.8q-.085,0-.17,0a4.171,4.171,0,0,1-4.167-4.167v-.042a4.166,4.166,0,0,1,8.332,0v.042a4.176,4.176,0,0,1-.965,2.668.9.9,0,0,0,1.385,1.154,5.981,5.981,0,0,0,1.383-3.822v-.042a5.975,5.975,0,0,0-5.968-5.968ZM177.3,418.326v-.042a4.171,4.171,0,0,1,4.166-4.166h3.142a5.946,5.946,0,0,0-1.7,4.165v.042a5.948,5.948,0,0,0,1.7,4.167H181.47A4.171,4.171,0,0,1,177.3,418.326Z" transform="translate(-162.115 -362.764)"/>
      </g>
    </g>
  </g>
</svg>
