<svg xmlns="http://www.w3.org/2000/svg" xmlns:xlink="http://www.w3.org/1999/xlink" width="108" height="108" viewBox="0 0 108 108">
  <defs>
    <filter id="Fondo" x="0" y="0" width="108" height="108" filterUnits="userSpaceOnUse">
      <feOffset dy="3" input="SourceAlpha"/>
      <feGaussianBlur stdDeviation="3" result="blur"/>
      <feFlood flood-opacity="0.161"/>
      <feComposite operator="in" in2="blur"/>
      <feComposite in="SourceGraphic"/>
    </filter>
  </defs>
  <g id="Group_1144245" data-name="Group 1144245" transform="translate(-1218 -673)">
    <g transform="matrix(1, 0, 0, 1, 1218, 673)" filter="url(#Fondo)">
      <g id="Fondo-2" data-name="Fondo" transform="translate(9 6)" fill="#fffbe7" stroke="#bca724" stroke-width="3">
        <circle cx="45" cy="45" r="45" stroke="none"/>
        <circle cx="45" cy="45" r="43.5" fill="none"/>
      </g>
    </g>
    <g id="Group_1144244" data-name="Group 1144244" transform="translate(1242.036 694.315)">
      <g id="Group_1144243" data-name="Group 1144243" transform="translate(3.927 0.81)">
        <g id="Group_1144242" data-name="Group 1144242" transform="translate(0)">
          <g id="Group_1144240" data-name="Group 1144240" transform="translate(0 20.559)">
            <g id="Group_1144236" data-name="Group 1144236" transform="translate(3.244)">
              <path id="Path_979645" data-name="Path 979645" d="M102.232,226.871H62.812a3.018,3.018,0,0,1,0-6.036h39.42A6.628,6.628,0,0,0,102.232,226.871Z" transform="translate(-57.72 -218.321)" fill="#f7f7f7"/>
              <path id="Path_979646" data-name="Path 979646" d="M127.118,220.834h-3.244a6.627,6.627,0,0,0,0,6.036h3.244A6.627,6.627,0,0,1,127.118,220.834Z" transform="translate(-82.606 -218.32)" fill="#efefef"/>
              <path id="Path_979647" data-name="Path 979647" d="M46.148,208.655a5.537,5.537,0,0,1-5.531-5.586,5.58,5.58,0,0,1,5.592-5.477H85.568a1.634,1.634,0,0,1,0,3.269H46.148a2.263,2.263,0,0,0,0,4.526h39.42a1.634,1.634,0,0,1,0,3.269Z" transform="translate(-40.617 -197.592)" fill="#ff815c"/>
            </g>
            <g id="Group_1144239" data-name="Group 1144239" transform="translate(0 11.063)">
              <g id="Group_1144237" data-name="Group 1144237" transform="translate(0 11.064)">
                <path id="Path_979648" data-name="Path 979648" d="M82.785,431.472H36.876a3.018,3.018,0,0,1,0-6.036H82.784A6.627,6.627,0,0,0,82.785,431.472Z" transform="translate(-31.345 -422.922)" fill="#f7f7f7"/>
                <path id="Path_979649" data-name="Path 979649" d="M453.514,425.436h-3.244a6.627,6.627,0,0,0,0,6.036h3.244A6.627,6.627,0,0,1,453.514,425.436Z" transform="translate(-402.074 -422.922)" fill="#efefef"/>
                <path id="Path_979650" data-name="Path 979650" d="M16.148,413.256a5.537,5.537,0,0,1-5.531-5.586,5.58,5.58,0,0,1,5.592-5.477H62.057a1.634,1.634,0,0,1,0,3.269H16.148a2.263,2.263,0,0,0,0,4.526H62.056a1.634,1.634,0,0,1,0,3.269H16.148Z" transform="translate(-10.617 -402.193)" fill="#ffe66b"/>
              </g>
              <g id="Group_1144238" data-name="Group 1144238" transform="translate(0)">
                <path id="Path_979651" data-name="Path 979651" d="M25.729,323.135H71.638a3.018,3.018,0,0,1,0,6.036H25.729A6.627,6.627,0,0,0,25.729,323.135Z" transform="translate(-24.095 -320.621)" fill="#f7f7f7"/>
                <path id="Path_979652" data-name="Path 979652" d="M12.251,310.955a1.634,1.634,0,0,1,0-3.269H58.16a2.263,2.263,0,0,0,0-4.526H12.251a1.634,1.634,0,0,1,0-3.269H58.16a5.537,5.537,0,0,1,5.531,5.586,5.58,5.58,0,0,1-5.592,5.477Z" transform="translate(-10.617 -299.892)" fill="#c9f0ff"/>
                <path id="Path_979653" data-name="Path 979653" d="M426.9,301.533a5.491,5.491,0,0,0-3.929-1.641h-3.244a5.537,5.537,0,0,1,5.531,5.586,5.58,5.58,0,0,1-5.592,5.477h3.244a5.58,5.58,0,0,0,5.592-5.477A5.494,5.494,0,0,0,426.9,301.533Z" transform="translate(-375.429 -299.892)" fill="#b5eaff"/>
              </g>
            </g>
          </g>
          <g id="Group_1144241" data-name="Group 1144241" transform="translate(1.353)">
            <path id="Path_979654" data-name="Path 979654" d="M146.278,107.506H116l3.244-10.924h23.792Z" transform="translate(-105.954 -86.947)" fill="#288a9a"/>
            <path id="Path_979655" data-name="Path 979655" d="M45.518,7.854,24,13.507a1.16,1.16,0,0,0,0,2.244L45.518,21.4a11.008,11.008,0,0,0,5.593,0l21.522-5.653a1.16,1.16,0,0,0,0-2.244L51.11,7.854A11.008,11.008,0,0,0,45.518,7.854Z" transform="translate(-23.13 -7.493)" fill="#3498ac"/>
            <path id="Path_979656" data-name="Path 979656" d="M230.286,13.507,208.764,7.854a11.008,11.008,0,0,0-5.593,0l-3.27.859a11.009,11.009,0,0,1,4.537.222l21.522,5.653a1.16,1.16,0,0,1,0,2.244l4.326-1.081a1.16,1.16,0,0,0,0-2.244Z" transform="translate(-180.784 -7.493)" fill="#288a9a"/>
            <path id="Path_979657" data-name="Path 979657" d="M306.969,182.9H302.3s0-7.044,2.334-7.044S306.969,182.9,306.969,182.9Z" transform="translate(-272.109 -157.647)" fill="#ffe66b"/>
          </g>
        </g>
        <path id="Path_979658" data-name="Path 979658" d="M96.855,341.182,93,343.206V330.118h3.858Z" transform="translate(-84.088 -295.227)" fill="#3498ac"/>
      </g>
      <path id="Path_979659" data-name="Path 979659" d="M243.644,44.836a3.005,3.005,0,0,1-3.207,0V42.531a1.6,1.6,0,1,1,3.207,0Z" transform="translate(-211.655 -36.501)" fill="#ffe66b"/>
      <path id="Path_979660" data-name="Path 979660" d="M55.638,50.494a5.837,5.837,0,0,1,0-2.934,2.447,2.447,0,0,0,.016-4.858,6.305,6.305,0,0,0,2.158-4.676A6.41,6.41,0,0,0,54.124,32.2a2.475,2.475,0,0,0-2.174-3.849,5.839,5.839,0,0,1,0-2.9c3.232.169,3.444-4.891.173-4.891H46.21L43.9,12.766,54.989,9.852a1.984,1.984,0,0,0,0-3.813L33.467.387a11.84,11.84,0,0,0-6,0l-8,2.1a.812.812,0,0,0,.412,1.569l8-2.1a10.218,10.218,0,0,1,5.18,0L54.577,7.609a.349.349,0,0,1,0,.675L38.013,12.634,32.8,7.907V6.029a2.415,2.415,0,0,0-4.829,0V8.335a.811.811,0,0,0,.387.691,3.8,3.8,0,0,0,3.552.263l4.232,3.837-3.086.811a10.218,10.218,0,0,1-5.18,0L6.352,8.284a.349.349,0,0,1,0-.675l9.415-2.473a.812.812,0,0,0-.412-1.569L5.94,6.04a1.984,1.984,0,0,0,0,3.813l11.093,2.914-2.314,7.791H12.764A6.341,6.341,0,0,0,8.47,31.621H5.562A2.446,2.446,0,0,0,5.291,36.5a5.828,5.828,0,0,1,0,2.934,2.447,2.447,0,0,0-.016,4.858A6.33,6.33,0,0,0,9.459,55.37H55.367A2.446,2.446,0,0,0,55.638,50.494ZM31.178,7.837a2.146,2.146,0,0,1-1.585,0V6.029a.793.793,0,0,1,1.585,0ZM51.47,36.512a1.452,1.452,0,0,1,0,2.9H17.506v-2.9ZM15.883,46.274l-2.236,1.173V36.512h2.236Zm-3.858-6.858H6.958a7.458,7.458,0,0,0,0-2.9h5.067Zm.391,10.067a.811.811,0,0,0,.8.024l3.681-1.931H53.971a7.476,7.476,0,0,0,0,2.9H9.459a1.452,1.452,0,0,1,0-2.9h2.567v1.213a.811.811,0,0,0,.391.694Zm37.87-21.131H12.7a1.452,1.452,0,0,1,0-2.9H34.674c-.02.578-.017,1.425.8,1.425H40.14c.818,0,.818-.847.8-1.425h9.349a7.476,7.476,0,0,0,0,2.9ZM37.806,19.829c.715,0,1.4,2.536,1.507,5.422H36.3c.112-2.886.792-5.422,1.507-5.422ZM52.946,23a.824.824,0,0,1-.823.823H40.832c-.053-.551-.124-1.1-.223-1.647H52.123A.824.824,0,0,1,52.946,23Zm-8.428-2.446H40.2a3.451,3.451,0,0,0-1.586-2.174v-4.23l3.709-.974ZM18.6,13.179l8.86,2.327a11.886,11.886,0,0,0,6,0l3.528-.927v3.8a3.45,3.45,0,0,0-1.586,2.174h-19ZM9.351,30.22a4.688,4.688,0,0,1-1.368-3.367,4.766,4.766,0,0,1,4.781-4.674H35c-.1.545-.169,1.1-.223,1.647H12.7a3.074,3.074,0,0,0,0,6.148h39.42a.824.824,0,0,1,0,1.647H12.7A4.687,4.687,0,0,1,9.351,30.22ZM4.738,34.067a.824.824,0,0,1,.823-.823H51.47a4.721,4.721,0,1,1-.061,9.441H47.155a.812.812,0,0,0,0,1.622h8.212a.823.823,0,0,1,0,1.647H17.506V44.307H42.88a.812.812,0,0,0,0-1.622H17.506V41.038H51.47a3.074,3.074,0,0,0,0-6.148H5.562a.824.824,0,0,1-.823-.823Zm.823,8.618a.823.823,0,0,1,0-1.647h6.464v1.647ZM55.367,53.748H9.459a4.726,4.726,0,0,1-4.72-4.767A4.766,4.766,0,0,1,9.52,44.307h2.506v1.647H9.459a3.074,3.074,0,0,0,0,6.148H55.367a.823.823,0,0,1,0,1.647Z" transform="translate(0 0)"/>
    </g>
  </g>
</svg>
