<svg xmlns="http://www.w3.org/2000/svg" xmlns:xlink="http://www.w3.org/1999/xlink" width="108" height="108" viewBox="0 0 108 108">
  <defs>
    <filter id="Path_904820" x="0" y="0" width="108" height="108" filterUnits="userSpaceOnUse">
      <feOffset dy="3" input="SourceAlpha"/>
      <feGaussianBlur stdDeviation="3" result="blur"/>
      <feFlood flood-opacity="0.161"/>
      <feComposite operator="in" in2="blur"/>
      <feComposite in="SourceGraphic"/>
    </filter>
  </defs>
  <g id="Group_1144434" data-name="Group 1144434" transform="translate(-726 -6556)">
    <g transform="matrix(1, 0, 0, 1, 726, 6556)" filter="url(#Path_904820)">
      <g id="Path_904820-2" data-name="Path 904820" transform="translate(9 6)" fill="#ecf4fa">
        <path d="M 45 88.5 C 39.12687683105469 88.5 33.43022537231445 87.35007476806641 28.06830024719238 85.08217620849609 C 22.88852500915527 82.89131164550781 18.23629951477051 79.75458526611328 14.2408504486084 75.75914764404297 C 10.24541282653809 71.76370239257812 7.108687400817871 67.11147308349609 4.917825222015381 61.93170166015625 C 2.649924993515015 56.56977462768555 1.5 50.87312316894531 1.5 45 C 1.5 39.12687683105469 2.649924993515015 33.43022537231445 4.917825222015381 28.06830024719238 C 7.108687400817871 22.88852500915527 10.24541282653809 18.23629951477051 14.2408504486084 14.2408504486084 C 18.23629951477051 10.24541282653809 22.88852500915527 7.108687400817871 28.06830024719238 4.917825222015381 C 33.43022537231445 2.649924993515015 39.12687683105469 1.5 45 1.5 C 50.87312316894531 1.5 56.56977462768555 2.649924993515015 61.93170166015625 4.917825222015381 C 67.11147308349609 7.108687400817871 71.76370239257812 10.24541282653809 75.75914764404297 14.2408504486084 C 79.75458526611328 18.23629951477051 82.89131164550781 22.88852500915527 85.08217620849609 28.06830024719238 C 87.35007476806641 33.43022537231445 88.5 39.12687683105469 88.5 45 C 88.5 50.87312316894531 87.35007476806641 56.56977462768555 85.08217620849609 61.93170166015625 C 82.89131164550781 67.11147308349609 79.75458526611328 71.76370239257812 75.75914764404297 75.75914764404297 C 71.76370239257812 79.75458526611328 67.11147308349609 82.89131164550781 61.93170166015625 85.08217620849609 C 56.56977462768555 87.35007476806641 50.87312316894531 88.5 45 88.5 Z" stroke="none"/>
        <path d="M 45 3 C 39.32871246337891 3 33.82865524291992 4.110054016113281 28.65262985229492 6.299339294433594 C 23.65165710449219 8.414573669433594 19.15968322753906 11.44334411621094 15.301513671875 15.301513671875 C 11.44334411621094 19.15968322753906 8.414573669433594 23.65165710449219 6.299339294433594 28.65262985229492 C 4.110054016113281 33.82865524291992 3 39.32871246337891 3 45 C 3 50.67128753662109 4.110054016113281 56.17134475708008 6.299339294433594 61.34737396240234 C 8.414573669433594 66.34834289550781 11.44334411621094 70.84031677246094 15.301513671875 74.698486328125 C 19.15968322753906 78.55665588378906 23.65165710449219 81.58542633056641 28.65262985229492 83.70066070556641 C 33.82865524291992 85.88994598388672 39.32871246337891 87 45 87 C 50.67128753662109 87 56.17134475708008 85.88994598388672 61.34737396240234 83.70066070556641 C 66.34834289550781 81.58542633056641 70.84031677246094 78.55665588378906 74.698486328125 74.698486328125 C 78.55665588378906 70.84031677246094 81.58542633056641 66.34834289550781 83.70066070556641 61.34737396240234 C 85.88994598388672 56.17134475708008 87 50.67128753662109 87 45 C 87 39.32871246337891 85.88994598388672 33.82865524291992 83.70066070556641 28.65262985229492 C 81.58542633056641 23.65165710449219 78.55665588378906 19.15968322753906 74.698486328125 15.301513671875 C 70.84031677246094 11.44334411621094 66.34834289550781 8.414573669433594 61.34737396240234 6.299339294433594 C 56.17134475708008 4.110054016113281 50.67128753662109 3 45 3 M 45 0 C 69.85281372070312 0 90 20.14718627929688 90 45 C 90 69.85281372070312 69.85281372070312 90 45 90 C 20.14718627929688 90 0 69.85281372070312 0 45 C 0 20.14718627929688 20.14718627929688 0 45 0 Z" stroke="none" fill="#2a5673"/>
      </g>
    </g>
    <g id="Group_1144433" data-name="Group 1144433" transform="translate(734.065 6576.673)">
      <g id="Group_1144429" data-name="Group 1144429" transform="translate(20.189 2.156)">
        <path id="Path_979926" data-name="Path 979926" d="M227.02,34.528a1.161,1.161,0,0,1-.175-.684c.35-4.979-.525-8.638-2.593-10.865a6.719,6.719,0,0,0-4.311-2.163,9.271,9.271,0,0,0-1.129.477,9.766,9.766,0,0,1-.414,17.689,9.964,9.964,0,0,0,4.406-.414,1.082,1.082,0,1,1,.732,2.036,12.675,12.675,0,0,1-3.913.636,8.583,8.583,0,0,1-4.963-1.448h-.207a9.751,9.751,0,0,1-8.017-4.184,1.068,1.068,0,0,1-1.3-.032,1.072,1.072,0,0,1-.175-1.527l.382-.525a9.586,9.586,0,0,1-.652-3.515,9.762,9.762,0,0,1,3.786-7.731,1.035,1.035,0,0,1,.589-.414,9.786,9.786,0,0,1,5.393-1.623,9.054,9.054,0,0,1,1.623.143A10.933,10.933,0,0,1,218.3,19.1c-1.638-2.911-4.056-2.466-4.343-2.4a1.369,1.369,0,0,1-.509,0l-1.957,2.656a1.085,1.085,0,0,1-.875.445,1.045,1.045,0,0,1-.652-.223,1.072,1.072,0,0,1-.223-1.511l2-2.688c-4.009-3.086-7.222-.97-8.16-.207V68.076c1.463,2.609,3.038,3.961,4.693,3.977h.048c2.816,0,5.615-3.738,6.458-5.186a1.1,1.1,0,0,1,.764-.525,4.071,4.071,0,0,0,2.959-1.686,5.556,5.556,0,0,0,.255-3.993,1.077,1.077,0,0,1,.6-1.336c4.438-1.909,4.82-6.061,4.661-8.335a7.41,7.41,0,0,1-3.627,1.05,6.117,6.117,0,0,1-1.607-.223c-3.515-1.018-5.074-5.138-5.138-5.313a1.087,1.087,0,1,1,2.036-.764c.016.048,1.257,3.277,3.722,3.993,1.384.4,2.991-.08,4.756-1.432a.95.95,0,0,1,.239-.143C232.349,42.72,227.243,34.862,227.02,34.528ZM213.738,57.259a1.083,1.083,0,0,1-1.082,1.082c-3.181,0-5.043,5.3-5.058,5.345a1.088,1.088,0,0,1-1.034.748.962.962,0,0,1-.35-.064A1.08,1.08,0,0,1,205.53,63a14.2,14.2,0,0,1,3.022-4.979v-.016c.032-.159.764-3.563-2.752-7.095a1.091,1.091,0,0,1,1.543-1.543,10.881,10.881,0,0,1,3.452,7.142,5.1,5.1,0,0,1,1.861-.35A1.1,1.1,0,0,1,213.738,57.259Z" transform="translate(-176.247 -13.719)" fill="#fff"/>
        <path id="Path_979927" data-name="Path 979927" d="M56.882,14.957c-1.066-.875-4.438-2.975-8.622.652,1.05,1.368,2.72,3.531,3.372,4.184a1.085,1.085,0,0,1,0,1.543,1.075,1.075,0,0,1-1.527,0c-.891-.891-3.118-3.818-3.9-4.836A4.163,4.163,0,0,0,42.2,18.966a8.827,8.827,0,0,1,5.695,7.7,1.082,1.082,0,0,1-2.163,0c0-.191-.127-4.231-5.17-6.013a6.775,6.775,0,0,0-4.311,2.2C34.2,25.09,33.323,28.733,33.689,33.68a1.161,1.161,0,0,1-.175.684c-.223.334-5.361,8.319,2.736,13.712l.016.016c.016.016.032.016.032.032a6.377,6.377,0,0,0,3.818,1.559A7.607,7.607,0,0,1,44.6,45.5a12.778,12.778,0,0,1,.493-6.315,7.63,7.63,0,0,1-1.766.207c-4.311,0-7.365-3.754-7.508-3.945a1.087,1.087,0,1,1,1.7-1.352c.143.175,3.627,4.406,7.89,2.72A17.515,17.515,0,0,0,50.089,34c1.352-1.05,2.625-2.052,4.327-1.209a1.092,1.092,0,1,1-.97,1.957c-.414-.207-.7-.064-2.02.97a20.617,20.617,0,0,1-3.547,2.354,1.4,1.4,0,0,1-.08.239,11.872,11.872,0,0,0-1.066,6.776c.127,0,.27-.016.4-.016a7.545,7.545,0,0,1,4.724,1.654,1.038,1.038,0,0,1,.461-.668,2.449,2.449,0,0,0,.716-3.563,1.09,1.09,0,1,1,1.813-1.209,4.623,4.623,0,0,1-1.32,6.586,1.3,1.3,0,0,1-.382.159,7.588,7.588,0,0,1-3.627,11.883,6.7,6.7,0,0,0-.6,4.04,1.093,1.093,0,0,1-.8,1.3,1.392,1.392,0,0,1-.255.032,1.071,1.071,0,0,1-1.05-.811,8.494,8.494,0,0,1,.27-4.184,7.6,7.6,0,0,1-7.524-7.6,7.282,7.282,0,0,1,.048-.843,7.727,7.727,0,0,1-3.07-1c-.159,2.291.239,6.426,4.677,8.319a1.083,1.083,0,0,1,.6,1.336c0,.016-.748,2.354.255,3.993a3.991,3.991,0,0,0,2.959,1.686,1.082,1.082,0,0,1,.764.525c.843,1.448,3.659,5.186,6.458,5.186H52.3c1.638-.032,3.2-1.336,4.661-3.913V14.957h-.08ZM40.052,33.123a4.883,4.883,0,1,1,4.883-4.883A4.895,4.895,0,0,1,40.052,33.123Z" transform="translate(-31.703 -13.554)" fill="#fff"/>
      </g>
      <path id="Path_979928" data-name="Path 979928" d="M72.967,22.091c.334-5.424-.748-9.528-3.2-12.153a9.018,9.018,0,0,0-5.281-2.8c-1.734-3.659-4.677-4.359-6.458-4.2C52.812-1.913,48.215.457,46.466,1.7,44.716.441,40.119-1.929,34.917,2.923c-1.8-.175-4.74.541-6.458,4.2a9.018,9.018,0,0,0-5.281,2.8c-2.45,2.641-3.531,6.729-3.2,12.153A15.024,15.024,0,0,0,18.1,27.547c-.366,2.959.191,7.126,4.82,10.515-.541,3.166-.032,8.606,5.027,11.278a7.089,7.089,0,0,0,.684,4.852,5.868,5.868,0,0,0,3.977,2.625c.923,1.432,4.1,5.838,8.081,5.838h.08c2.132-.032,4.056-1.288,5.727-3.738,1.686,2.45,3.611,3.722,5.727,3.738h.08c3.977,0,7.158-4.406,8.081-5.838a5.868,5.868,0,0,0,3.977-2.625,7.089,7.089,0,0,0,.684-4.852c5.043-2.672,5.552-8.129,5.027-11.278C78.121,32.144,73.985,23.857,72.967,22.091ZM68.354,36.582a.949.949,0,0,0-.239.143c-1.766,1.352-3.372,1.829-4.756,1.432-2.45-.716-3.706-3.945-3.722-3.993a1.087,1.087,0,1,0-2.036.764c.064.175,1.623,4.295,5.138,5.313a5.519,5.519,0,0,0,1.607.223,7.364,7.364,0,0,0,3.627-1.05c.159,2.275-.223,6.442-4.661,8.335a1.1,1.1,0,0,0-.6,1.336c0,.016.748,2.354-.255,3.993a3.991,3.991,0,0,1-2.959,1.686,1.082,1.082,0,0,0-.764.525c-.843,1.448-3.659,5.186-6.458,5.186h-.048c-1.654-.032-3.229-1.368-4.693-3.977V3.607c.939-.779,4.136-2.879,8.16.207L53.7,6.5a1.072,1.072,0,0,0,.223,1.511,1.076,1.076,0,0,0,1.527-.223L57.426,5.15a1.1,1.1,0,0,0,.509,0c.286-.064,2.7-.509,4.343,2.4A10.517,10.517,0,0,0,60.05,8.84a8.563,8.563,0,0,0-3.5,6.426,1.082,1.082,0,1,0,2.163,0,6.675,6.675,0,0,1,4.04-5.536,10.471,10.471,0,0,1,1.129-.477,6.719,6.719,0,0,1,4.311,2.163c2.084,2.227,2.959,5.886,2.593,10.865a1.161,1.161,0,0,0,.175.684C71.185,23.3,76.291,31.158,68.354,36.582ZM40.707,60.491h-.048c-2.816,0-5.615-3.738-6.458-5.186a1.1,1.1,0,0,0-.764-.525,4.071,4.071,0,0,1-2.959-1.686,5.556,5.556,0,0,1-.255-3.993,1.077,1.077,0,0,0-.6-1.336c-4.422-1.893-4.82-6.029-4.677-8.319a7.558,7.558,0,0,0,3.07,1c.175.016.35.032.509.032a6.117,6.117,0,0,0,1.607-.223A7.587,7.587,0,0,0,34.185,37a8.377,8.377,0,0,0,2.5,2.529,1.065,1.065,0,0,0,.6.175,1.11,1.11,0,0,0,.907-.477,1.1,1.1,0,0,0-.3-1.511,6.149,6.149,0,0,1-2.72-4.009,11.836,11.836,0,0,1,1.066-6.776,1.4,1.4,0,0,0,.08-.239,22.31,22.31,0,0,0,3.547-2.354c1.32-1.034,1.607-1.177,2.02-.97a1.092,1.092,0,0,0,.97-1.957c-1.7-.843-2.975.143-4.327,1.209a17.515,17.515,0,0,1-4.677,2.816c-4.247,1.7-7.731-2.529-7.89-2.72a1.087,1.087,0,1,0-1.7,1.352c.159.191,3.213,3.945,7.508,3.945a7.63,7.63,0,0,0,1.766-.207,12.778,12.778,0,0,0-.493,6.315c.016.1.048.207.064.3-.35.779-1.559,3.15-3.611,3.738a3.11,3.11,0,0,1-.939.127,6.377,6.377,0,0,1-3.818-1.559c-.016-.016-.032-.016-.032-.032l-.016-.016c-8.1-5.393-2.959-13.378-2.736-13.712a1.161,1.161,0,0,0,.175-.684c-.35-4.947.509-8.59,2.561-10.833A6.71,6.71,0,0,1,29,9.254c5.027,1.782,5.154,5.822,5.17,6.013a1.082,1.082,0,0,0,2.163,0,8.827,8.827,0,0,0-5.695-7.7A4.163,4.163,0,0,1,34.647,5.1c.779,1.018,3.006,3.945,3.9,4.836a1.075,1.075,0,0,0,1.527,0,1.085,1.085,0,0,0,0-1.543c-.636-.652-2.322-2.8-3.372-4.184,4.184-3.627,7.556-1.527,8.622-.652V56.577C43.92,59.139,42.346,60.459,40.707,60.491Z" transform="translate(0 0)" fill="#602f75"/>
      <g id="Group_1144430" data-name="Group 1144430" transform="translate(27.997 33.703)">
        <path id="Path_979929" data-name="Path 979929" d="M88.3,227.047a11.737,11.737,0,0,1,3.07-4.963,1.091,1.091,0,1,1,1.543,1.543,10.274,10.274,0,0,0-2.147,3.054A7.588,7.588,0,0,0,94.389,214.8a.931.931,0,0,1-.207.032,1.11,1.11,0,0,1-.907-.477,1.04,1.04,0,0,1-.159-.827,7.579,7.579,0,0,0-4.724-1.654,3.323,3.323,0,0,0-.4.016,6.207,6.207,0,0,0,2.72,4.009,1.1,1.1,0,0,1,.3,1.511,1.07,1.07,0,0,1-.907.477,1.206,1.206,0,0,1-.6-.175,8.377,8.377,0,0,1-2.5-2.529,7.647,7.647,0,0,1-4.056,3.261,5.519,5.519,0,0,1-1.607.223c-.175,0-.334-.016-.509-.032a7.282,7.282,0,0,0-.048.843A7.587,7.587,0,0,0,88.3,227.047Z" transform="translate(-80.789 -211.872)" fill="#ffe600"/>
        <path id="Path_979930" data-name="Path 979930" d="M84.589,218.64a3.708,3.708,0,0,0,.939-.127c2.052-.589,3.261-2.959,3.611-3.738a2.046,2.046,0,0,1-.064-.3A7.534,7.534,0,0,0,84.589,218.64Z" transform="translate(-83.984 -214.058)" fill="#ffe600"/>
      </g>
      <g id="Group_1144431" data-name="Group 1144431" transform="translate(48.629 8.681)">
        <path id="Path_979931" data-name="Path 979931" d="M227.879,128.678a19.469,19.469,0,0,1-2.831-5.377c-.493-1.288-.684-1.7-1-1.829a15.881,15.881,0,0,1-2.434,4.534,1.374,1.374,0,0,1-.223.207,9.751,9.751,0,0,0,8.017,4.184h.207A8.039,8.039,0,0,1,227.879,128.678Z" transform="translate(-219.655 -110.83)" fill="#00e7ff"/>
        <path id="Path_979932" data-name="Path 979932" d="M237.989,56.21a.9.9,0,0,1,.286-.048,1.073,1.073,0,0,1,1.1,1.066,24.938,24.938,0,0,1-.748,5.886c1.368.429,1.877,1.75,2.4,3.15a18.019,18.019,0,0,0,2.529,4.836,5.662,5.662,0,0,0,3.738,2.2,9.766,9.766,0,0,0,.414-17.689,6.692,6.692,0,0,0-4.04,5.536,1.082,1.082,0,0,1-2.163,0,8.564,8.564,0,0,1,3.5-6.426,9.053,9.053,0,0,0-1.623-.143A9.929,9.929,0,0,0,237.989,56.21Z" transform="translate(-233.615 -54.572)" fill="#00e7ff"/>
        <path id="Path_979933" data-name="Path 979933" d="M214.084,68.208a1.075,1.075,0,0,1,.191-.636,9.738,9.738,0,0,0-3.786,7.731,9.86,9.86,0,0,0,.652,3.515C214.132,74.523,214.084,68.272,214.084,68.208Z" transform="translate(-210.489 -65.504)" fill="#00e7ff"/>
      </g>
      <circle id="Ellipse_11559" data-name="Ellipse 11559" cx="4.883" cy="4.883" r="4.883" transform="translate(23.653 11.954)" fill="#ea3457"/>
      <g id="Group_1144432" data-name="Group 1144432" transform="translate(35.099 10.286)">
        <path id="Path_979934" data-name="Path 979934" d="M130.455,274.369a1.085,1.085,0,0,0-1.543,0,11.737,11.737,0,0,0-3.07,4.963,8.724,8.724,0,0,0-.27,4.184,1.071,1.071,0,0,0,1.05.811,1.393,1.393,0,0,0,.255-.032,1.089,1.089,0,0,0,.8-1.3,6.845,6.845,0,0,1,.6-4.04,10.478,10.478,0,0,1,2.147-3.054A1.066,1.066,0,0,0,130.455,274.369Z" transform="translate(-125.436 -240.74)" fill="#602f75"/>
        <path id="Path_979935" data-name="Path 979935" d="M220.745,79.6a17.787,17.787,0,0,1-2.529-4.836c-.525-1.4-1.034-2.72-2.4-3.15a25.948,25.948,0,0,0,.748-5.886,1.063,1.063,0,0,0-1.1-1.066.9.9,0,0,0-.286.048,1.115,1.115,0,0,0-.589.414.975.975,0,0,0-.191.636c0,.064.048,6.315-2.943,10.61l-.382.525a1.1,1.1,0,0,0,.175,1.527,1.075,1.075,0,0,0,.668.239,1.165,1.165,0,0,0,.636-.207,1.374,1.374,0,0,0,.223-.207,15.881,15.881,0,0,0,2.434-4.534c.3.127.509.541,1,1.829a19.468,19.468,0,0,0,2.831,5.377,7.653,7.653,0,0,0,1.75,1.7,8.551,8.551,0,0,0,4.963,1.448,12.557,12.557,0,0,0,3.913-.636,1.082,1.082,0,1,0-.732-2.036,9.712,9.712,0,0,1-4.406.414A5.74,5.74,0,0,1,220.745,79.6Z" transform="translate(-197.257 -64.663)" fill="#602f75"/>
        <path id="Path_979936" data-name="Path 979936" d="M158.215,191.415a1.07,1.07,0,0,0,.907.477.931.931,0,0,0,.207-.032,1.146,1.146,0,0,0,.382-.159,4.623,4.623,0,0,0,1.32-6.586,1.09,1.09,0,0,0-1.813,1.209,2.449,2.449,0,0,1-.716,3.563,1.145,1.145,0,0,0-.461.668A1.34,1.34,0,0,0,158.215,191.415Z" transform="translate(-152.846 -165.549)" fill="#602f75"/>
        <path id="Path_979937" data-name="Path 979937" d="M222.613,242.861a5.1,5.1,0,0,0-1.861.35,10.991,10.991,0,0,0-3.452-7.142,1.091,1.091,0,0,0-1.543,1.543c3.531,3.531,2.8,6.936,2.752,7.095v.016a14.2,14.2,0,0,0-3.022,4.979,1.074,1.074,0,0,0,.684,1.368,1.241,1.241,0,0,0,.35.064,1.088,1.088,0,0,0,1.034-.748c.016-.048,1.877-5.345,5.058-5.345a1.083,1.083,0,0,0,1.082-1.082A1.1,1.1,0,0,0,222.613,242.861Z" transform="translate(-201.114 -208.532)" fill="#602f75"/>
      </g>
    </g>
  </g>
</svg>
