<svg xmlns="http://www.w3.org/2000/svg" width="68.287" height="68.923" viewBox="0 0 68.287 68.923">
  <g id="Group_1144285" data-name="Group 1144285" transform="translate(-0.8 -0.5)">
    <g id="Group_1144261" data-name="Group 1144261" transform="translate(1.012 1.348)">
      <circle id="Ellipse_11554" data-name="Ellipse 11554" cx="34.038" cy="34.038" r="34.038" fill="#fdbf5e"/>
    </g>
    <g id="Group_1144277" data-name="Group 1144277" transform="translate(0.8 9.937)">
      <g id="Group_1144262" data-name="Group 1144262" transform="translate(0 0)">
        <path id="Path_979712" data-name="Path 979712" d="M7.632,10.3A5.815,5.815,0,0,0,1.8,16.132v6.892H13.57V16.132A5.907,5.907,0,0,0,7.632,10.3Z" transform="translate(-0.74 -9.346)" fill="#fff"/>
        <path id="Path_979713" data-name="Path 979713" d="M13.63,24.245H1.86A1,1,0,0,1,.8,23.185V16.292a6.892,6.892,0,1,1,13.785,0v6.892A.975.975,0,0,1,13.63,24.245ZM2.921,22.124H12.57V16.292a4.772,4.772,0,1,0-9.543,0v5.832Z" transform="translate(-0.8 -9.4)" fill="#193651"/>
      </g>
      <g id="Group_1144263" data-name="Group 1144263" transform="translate(5.938)">
        <path id="Path_979714" data-name="Path 979714" d="M54.38,16.232A5.815,5.815,0,0,0,48.548,10.4H7.3a5.815,5.815,0,0,1,5.832,5.832v47.08a3.124,3.124,0,0,0,3.181,3.181H41.656L54.38,53.769Z" transform="translate(-6.346 -9.34)" fill="#e1e6e9"/>
        <path id="Path_979715" data-name="Path 979715" d="M41.71,67.508H16.473a4.254,4.254,0,0,1-4.241-4.241V16.4A4.776,4.776,0,0,0,7.46,11.521,1,1,0,0,1,6.4,10.46,1,1,0,0,1,7.46,9.4H48.6a6.879,6.879,0,0,1,6.892,6.892V53.829a.963.963,0,0,1-.318.742L42.452,67.3A1.532,1.532,0,0,1,41.71,67.508ZM12.338,11.415a7.118,7.118,0,0,1,1.909,4.772V63.16a2.127,2.127,0,0,0,2.121,2.121H41.18L53.268,53.193v-36.9A4.752,4.752,0,0,0,48.5,11.521H12.338Z" transform="translate(-6.4 -9.4)" fill="#193651"/>
      </g>
      <g id="Group_1144264" data-name="Group 1144264" transform="translate(16.966 5.302)">
        <path id="Path_979716" data-name="Path 979716" d="M16.906,61.9V16.1a8.571,8.571,0,0,0-.106-1.7H47.975a1.562,1.562,0,0,1,1.591,1.591V53.527L41.082,62.01H16.906Z" transform="translate(-16.8 -14.4)" fill="#fff"/>
      </g>
      <g id="Group_1144265" data-name="Group 1144265" transform="translate(40.188 43.263)">
        <path id="Path_979717" data-name="Path 979717" d="M39.7,63.924,52.424,51.2H42.881A3.124,3.124,0,0,0,39.7,54.381Z" transform="translate(-38.64 -50.14)" fill="#fff"/>
        <path id="Path_979718" data-name="Path 979718" d="M39.76,65.045a.638.638,0,0,1-.424-.106,1.019,1.019,0,0,1-.636-.954V54.441A4.254,4.254,0,0,1,42.941,50.2h9.543a.927.927,0,0,1,.954.636A.968.968,0,0,1,53.227,52L40.5,64.727A.963.963,0,0,1,39.76,65.045Zm3.181-12.618a2.127,2.127,0,0,0-2.121,2.121v7l9.119-9.119Z" transform="translate(-38.7 -50.2)" fill="#193651"/>
      </g>
      <g id="Group_1144266" data-name="Group 1144266" transform="translate(20.359 13.467)">
        <path id="Path_979719" data-name="Path 979719" d="M20,22.1H45.979v2.121H20Z" transform="translate(-20 -22.1)" fill="#193651"/>
      </g>
      <g id="Group_1144267" data-name="Group 1144267" transform="translate(20.359 13.467)">
        <path id="Path_979720" data-name="Path 979720" d="M20,22.1H45.979v2.121H20Z" transform="translate(-20 -22.1)" fill="#cfd0d1"/>
      </g>
      <g id="Group_1144268" data-name="Group 1144268" transform="translate(20.359 19.405)">
        <path id="Path_979721" data-name="Path 979721" d="M20,27.7H45.979v2.121H20Z" transform="translate(-20 -27.7)" fill="#cfd0d1"/>
      </g>
      <g id="Group_1144269" data-name="Group 1144269" transform="translate(20.359 25.343)">
        <path id="Path_979722" data-name="Path 979722" d="M20,33.3H45.979v2.121H20Z" transform="translate(-20 -33.3)" fill="#cfd0d1"/>
      </g>
      <g id="Group_1144270" data-name="Group 1144270" transform="translate(20.359 31.387)">
        <path id="Path_979723" data-name="Path 979723" d="M20,39H45.979v2.121H20Z" transform="translate(-20 -39)" fill="#cfd0d1"/>
      </g>
      <g id="Group_1144271" data-name="Group 1144271" transform="translate(20.359 37.325)">
        <path id="Path_979724" data-name="Path 979724" d="M20,44.6H45.979v2.121H20Z" transform="translate(-20 -44.6)" fill="#cfd0d1"/>
      </g>
      <g id="Group_1144276" data-name="Group 1144276" transform="translate(20.359 43.369)">
        <g id="Group_1144272" data-name="Group 1144272">
          <path id="Path_979725" data-name="Path 979725" d="M20,50.3h2.121v2.121H20Z" transform="translate(-20 -50.3)" fill="#193651"/>
        </g>
        <g id="Group_1144273" data-name="Group 1144273" transform="translate(4.241)">
          <path id="Path_979726" data-name="Path 979726" d="M24,50.3h2.121v2.121H24Z" transform="translate(-24 -50.3)" fill="#193651"/>
        </g>
        <g id="Group_1144274" data-name="Group 1144274" transform="translate(8.483)">
          <path id="Path_979727" data-name="Path 979727" d="M28,50.3h2.121v2.121H28Z" transform="translate(-28 -50.3)" fill="#193651"/>
        </g>
        <g id="Group_1144275" data-name="Group 1144275" transform="translate(12.724)">
          <path id="Path_979728" data-name="Path 979728" d="M32,50.3h2.121v2.121H32Z" transform="translate(-32 -50.3)" fill="#193651"/>
        </g>
      </g>
    </g>
    <g id="Group_1144278" data-name="Group 1144278" transform="translate(50.001 24.782)">
      <circle id="Ellipse_11555" data-name="Ellipse 11555" cx="8.377" cy="8.377" r="8.377" transform="translate(1.06 0.954)" fill="#4fbf9f"/>
      <path id="Path_979729" data-name="Path 979729" d="M56.637,42.274a9.437,9.437,0,1,1,9.437-9.437,9.458,9.458,0,0,1-9.437,9.437Zm0-16.86a7.316,7.316,0,1,0,7.316,7.316A7.331,7.331,0,0,0,56.637,25.415Z" transform="translate(-47.2 -23.4)" fill="#193651"/>
    </g>
    <g id="Group_1144279" data-name="Group 1144279" transform="translate(47.88 1.666)">
      <circle id="Ellipse_11556" data-name="Ellipse 11556" cx="8.377" cy="8.377" r="8.377" transform="translate(1.06 0.954)" fill="#f16051"/>
      <path id="Path_979730" data-name="Path 979730" d="M54.637,20.474a9.437,9.437,0,1,1,9.437-9.437A9.458,9.458,0,0,1,54.637,20.474Zm0-16.86a7.316,7.316,0,1,0,7.316,7.316,7.331,7.331,0,0,0-7.316-7.316Z" transform="translate(-45.2 -1.6)" fill="#193651"/>
    </g>
    <g id="Group_1144280" data-name="Group 1144280" transform="translate(21.795 0.5)">
      <circle id="Ellipse_11557" data-name="Ellipse 11557" cx="8.377" cy="8.377" r="8.377" transform="translate(1.06 1.06)" fill="#2ea2db"/>
      <path id="Path_979731" data-name="Path 979731" d="M30.037,19.374a9.437,9.437,0,1,1,9.437-9.437,9.458,9.458,0,0,1-9.437,9.437Zm0-16.754a7.316,7.316,0,1,0,7.316,7.316,7.331,7.331,0,0,0-7.316-7.316Z" transform="translate(-20.6 -0.5)" fill="#193651"/>
    </g>
    <g id="Group_1144284" data-name="Group 1144284" transform="translate(27.415 5.272)">
      <g id="Group_1144281" data-name="Group 1144281">
        <path id="Path_979732" data-name="Path 979732" d="M30.46,5H29.081l-3.075,7L25.9,12.1h1.485l.742-1.591h3.287l.742,1.591h1.485Zm.424,4.241H28.657L29.717,6.7Z" transform="translate(-25.9 -5)" fill="#fff"/>
      </g>
      <g id="Group_1144282" data-name="Group 1144282" transform="translate(27.887 2.121)">
        <path id="Path_979733" data-name="Path 979733" d="M57.4,13.468a2.233,2.233,0,0,0,.53-1.378,1.6,1.6,0,0,0-.424-1.166,2.309,2.309,0,0,0-.848-.53c.106,0,.106-.106.318-.212a1.756,1.756,0,0,0,.53-1.272,1.956,1.956,0,0,0-.53-1.272,2.936,2.936,0,0,0-.848-.53c-.318,0-.742-.106-1.166-.106H52.2v7.1h3.181a2.154,2.154,0,0,0,2.015-.636Zm-3.923-3.5V8.378h1.378a1.37,1.37,0,0,1,.848.212c.212.106.212.318.212.636,0,.212,0,.742-1.166.742Zm2.969,2.015a.641.641,0,0,1-.318.636,2.117,2.117,0,0,1-.954.212h-1.7V11.241h1.591C56.017,11.241,56.441,11.454,56.441,11.984Z" transform="translate(-52.2 -7)" fill="#fff"/>
      </g>
      <g id="Group_1144283" data-name="Group 1144283" transform="translate(28.418 25.131)">
        <path id="Path_979734" data-name="Path 979734" d="M58.214,34a3.476,3.476,0,0,1-.848.636,3.1,3.1,0,0,1-.954.212,2.158,2.158,0,0,1-1.591-.636,2.335,2.335,0,0,1,1.7-4.029,2.117,2.117,0,0,1,.954.212,2.5,2.5,0,0,1,.954.636l.106.106.848-1.06-.106-.106A3.57,3.57,0,0,0,56.517,28.7a3.755,3.755,0,0,0-2.757,1.06,3.844,3.844,0,0,0,0,5.3,3.517,3.517,0,0,0,2.651,1.06,3.57,3.57,0,0,0,2.757-1.272l.106-.106Z" transform="translate(-52.7 -28.7)" fill="#fff"/>
      </g>
    </g>
  </g>
</svg>
